<?xml version="1.0" encoding="UTF-8" standalone="no"?><!DOCTYPE svg PUBLIC "-//W3C//DTD SVG 1.1//EN" "http://www.w3.org/Graphics/SVG/1.1/DTD/svg11.dtd"><svg width="100%" height="100%" viewBox="0 0 2084 2021" version="1.1" xmlns="http://www.w3.org/2000/svg" xmlns:xlink="http://www.w3.org/1999/xlink" xml:space="preserve" xmlns:serif="http://www.serif.com/" style="fill-rule:evenodd;clip-rule:evenodd;stroke-linejoin:round;stroke-miterlimit:2;"><g id="OBJECTS"><g><path d="M610.395,1656.68c0,0 -26.275,352.738 5,358.63c31.271,5.895 78.338,-320.017 78.338,-320.017l-83.338,-38.613Z" style="fill:#241833;fill-rule:nonzero;"/><path d="M1472.94,1656.68c-0,0 26.275,352.738 -5,358.63c-31.271,5.895 -78.338,-320.017 -78.338,-320.017l83.338,-38.613Z" style="fill:#241833;fill-rule:nonzero;"/><path d="M714.371,1064.08c0,-0 560.9,-83.817 678.792,10.075c117.892,93.896 -9.092,374.979 55.808,409.366c102.834,54.488 125.954,185.371 93.734,280.313c-32.221,94.946 -904.2,100.912 -988.68,18.791c-84.475,-82.12 57.58,-265.112 49.871,-330.112c-7.708,-65.004 -7.475,-346.125 110.475,-388.433" style="fill:#ec6f3d;fill-rule:nonzero;"/><path d="M709.171,1214.01c-0,0 221.325,-204.942 618.35,-10.5c30.154,14.767 200.537,434.604 32.575,496.904c-167.967,62.3 -618.213,24.884 -686.638,0c-68.429,-24.883 -25.666,-451.287 35.713,-486.404" style="fill:#e74736;fill-rule:nonzero;"/><path d="M803.846,1306.05c-0,-0 27.271,-21.13 34.758,-15.013c7.488,6.121 2.65,28.929 2.65,28.929c0,0 54.929,131.079 49.892,184.204l15.262,24.221l-51.633,8.892c-0,-0 -151.65,31.45 -217.683,40.675c-0,-0 -22.234,25.742 -28.905,24.775c-6.67,-0.971 0,-35.125 0,-35.125l-40.02,-178.058c-0,-0 -35.575,-40.059 -24.459,-39.546c11.117,0.512 46.692,13.854 46.692,13.854c-0,-0 157.862,-48.917 213.446,-57.808" style="fill:#60868b;fill-rule:nonzero;"/><path d="M1504.11,1370.06c0,0 34.384,-2.833 37.321,6.375c2.938,9.213 -13.554,25.692 -13.554,25.692c-0,-0 -25.458,139.825 -58.654,181.604l-0.421,28.625l-48.125,-20.708c-0,-0 -144.263,-56.35 -204.638,-84.638c0,0 -32.679,9.446 -37.741,5c-5.063,-4.454 19.158,-29.441 19.158,-29.441l63.575,-171.071c0,-0 -7.971,-52.979 1.067,-46.484c9.037,6.496 31.579,37.08 31.579,37.08c-0,-0 158.992,45.104 210.433,67.966" style="fill:#60868b;fill-rule:nonzero;"/><path d="M647.422,1458.65l-1.046,-4.038c5.809,-1.504 142.584,-36.704 178.7,-35.733l-0.133,4.167c-35.446,-1.159 -176.108,35.237 -177.521,35.604" style="fill:#241833;fill-rule:nonzero;"/><path d="M1445.61,1452.74c-33.108,-12.713 -177.883,-24.738 -179.341,-24.859l0.341,-4.15c5.98,0.492 146.83,12.192 180.496,25.117l-1.496,3.892Z" style="fill:#241833;fill-rule:nonzero;"/><path d="M1064.29,1089.57c-0,-0 77.712,4.12 76.75,-23.846c-0.967,-27.963 -28.804,-118.613 -55.388,-115.717c-26.583,2.892 -43.316,139.608 -21.362,139.563" style="fill:#241833;fill-rule:nonzero;"/><path d="M1008.92,1003.13c-0,0 -10.604,75.917 -23.504,100.209c-5.592,10.525 -52.759,3.508 -75.667,25.4c-22.908,21.891 55.529,84.954 103.062,111.966c36.434,20.709 137.675,-114.971 133.092,-115.316c-29.508,-2.217 -82.704,-14.113 -81.612,-35.817c1.091,-21.704 1.658,-41.442 1.658,-41.442c-0,0 -52.696,-41.741 -57.029,-45" style="fill:#ec7979;fill-rule:nonzero;"/><path d="M987.327,941.604c-0,-0 -17.988,131.483 56.487,135.425c51.229,2.712 76.479,-83.113 63.854,-124.079c-12.629,-40.971 -89.041,-42.505 -120.341,-11.346" style="fill:#ec7979;fill-rule:nonzero;"/><path d="M989.836,1005.01c-0,0 -2.363,-22.516 -13.888,-12.354c-11.525,10.163 2.413,39.179 12.959,39.579c10.546,0.404 5.391,-16.921 0.929,-27.225" style="fill:#ec7979;fill-rule:nonzero;"/><path d="M996.28,1025.04c-0.396,7.383 5.266,13.687 12.65,14.083c7.383,0.396 13.687,-5.266 14.083,-12.65c0.396,-7.383 -5.267,-13.687 -12.65,-14.083c-7.383,-0.396 -13.688,5.267 -14.083,12.65" style="fill:#e85c6d;fill-rule:nonzero;"/><path d="M1072.29,1022.49c-0.396,7.383 5.266,13.687 12.65,14.083c7.383,0.396 13.687,-5.267 14.083,-12.65c0.396,-7.383 -5.267,-13.688 -12.65,-14.083c-7.383,-0.396 -13.687,5.266 -14.083,12.65" style="fill:#e85c6d;fill-rule:nonzero;"/><path d="M953.728,1111.83c-0,0 16.858,84.8 85.779,80.459c64.092,-4.042 68.888,-75.313 68.888,-75.313c27.42,6.958 112.87,7.367 137.262,75.313c24.396,67.941 55.125,315.795 6.908,338.22c-48.216,22.425 -91.27,24.375 -207.82,28.88c-116.55,4.504 -169.796,69.166 -233.113,54.7c-63.312,-14.467 -5.912,-445.625 37.417,-473.192c43.325,-27.567 104.679,-29.067 104.679,-29.067" style="fill:#f6e8df;fill-rule:nonzero;"/><path d="M735.957,1358.92c0,0 51.513,45.071 88.683,39.121c37.171,-5.95 55.821,-138.912 60.713,-191.512c4.896,-52.605 0.662,-87.663 -13.296,-77.517c-6.466,4.7 -26.795,7.129 -51.087,30.269c-28.151,26.815 -61.625,81.441 -85.013,199.639" style="fill:#f6e8df;fill-rule:nonzero;"/><path d="M1279.88,1310.86c-0,0 -42.95,34.95 -73.946,30.334c-30.996,-4.613 -46.546,-107.717 -50.625,-148.505c-4.079,-40.787 -2.562,-52.245 -13.837,-60.562c-5.263,-3.879 112.179,1.921 138.408,178.733" style="fill:#f6e8df;fill-rule:nonzero;"/><path d="M826.914,1318.96c-0,-0 -16.579,84.308 48.104,103.587c64.683,19.275 310.758,-75.683 376.942,-74.221c66.187,1.463 43.087,24.792 41.412,-8.546c-1.437,-28.7 -1.354,-47.004 -52.771,-51.366c-51.421,-4.367 -230.954,-90.979 -413.687,30.546" style="fill:#ec7979;fill-rule:nonzero;"/><path d="M1058.24,1038.67l-0.013,0c-4.766,-0.029 -13.421,-4.867 -14.387,-5.421l2.058,-3.621c3.083,1.755 8.767,4.471 11.758,4.834c1.042,-2.771 0.13,-14.446 -1.475,-24.317l4.109,-0.667c1.171,7.192 3.55,24.317 0.362,28.046c-0.633,0.738 -1.487,1.146 -2.412,1.146" style="fill:#241833;fill-rule:nonzero;"/><path d="M1026.83,1007.53c-6.062,-0 -11.629,-2.613 -14.7,-4.863l2.458,-3.366c0.513,0.37 12.596,8.95 22.371,0.141l2.792,3.092c-4.083,3.683 -8.629,4.996 -12.921,4.996" style="fill:#241833;fill-rule:nonzero;"/><path d="M1082.21,1009.78c-6.062,-0 -11.625,-2.613 -14.696,-4.859l2.454,-3.366c0.513,0.371 12.592,8.958 22.371,0.137l2.792,3.092c-4.083,3.687 -8.629,4.996 -12.921,4.996" style="fill:#241833;fill-rule:nonzero;"/><path d="M1056.69,1057.57c-11.442,-12.737 -32.763,-5.6 -32.98,-5.525l-1.358,-3.937c0.979,-0.342 24.138,-8.125 37.438,6.679l-3.1,2.783Z" style="fill:#241833;fill-rule:nonzero;"/><path d="M1049.37,1078.4c-14.4,0 -26.292,-4.416 -27.071,-4.708l1.475,-3.896c0.288,0.104 28.85,10.667 49.958,-1.433l2.075,3.612c-8.495,4.875 -17.908,6.425 -26.437,6.425" style="fill:#241833;fill-rule:nonzero;"/><path d="M940.99,1262.93c0,-0 62.813,126.825 54.117,140.325c-8.7,13.504 -137.792,102.15 -228.854,51.254c-91.067,-50.9 -0.763,-245.963 48.329,-274.454c49.087,-28.492 126.408,82.875 126.408,82.875" style="fill:#f6e8df;fill-rule:nonzero;"/><path d="M841.927,1281.63l-1.446,-3.905c28.525,-10.529 97.413,-16.625 100.329,-16.875l0.363,4.15c-0.713,0.059 -71.25,6.3 -99.246,16.629" style="fill:#241833;fill-rule:nonzero;"/><path d="M901.283,1070.73c-0,0 113.537,32.492 108.362,11.104c-12.287,-50.829 -7.958,-113.508 0,-116.404c7.962,-2.891 56.079,35.684 89.4,18.325c33.317,-17.358 32.754,-88.221 -46.521,-95.933c-79.275,-7.717 -129.421,26.5 -151.242,182.908" style="fill:#241833;fill-rule:nonzero;"/><path d="M1303.38,1274.91c-0,0 -109.021,-256.762 -152.363,-317.758c-43.337,-60.996 -75.22,-60.667 -75.22,-60.667c-10.205,7.08 16.625,33.288 16.625,33.288c-0,-0 -31.83,-27.342 -33.292,-17.113c-1.458,10.23 20.1,30.684 20.1,30.684c-0,-0 -23.35,-17.534 -29.029,-10.229c-5.679,7.308 45.279,47.45 59.979,79.25c14.7,31.795 9.879,213.275 26.133,276.045c17.188,66.359 192.092,74.646 167.067,-13.5" style="fill:#ec7979;fill-rule:nonzero;"/><path d="M889.365,1266.72l-4.108,-0.675c1.842,-11.23 5.467,-58.055 5.5,-58.521l4.158,0.316c-0.15,1.934 -3.679,47.471 -5.55,58.88" style="fill:#241833;fill-rule:nonzero;"/><path d="M1147.75,1330.78c-28.379,-36.079 -28.696,-216.254 -28.696,-223.908l4.167,-0c-0,1.858 0.312,186.379 27.8,221.333l-3.271,2.575Z" style="fill:#241833;fill-rule:nonzero;"/><path d="M1178.4,1694.36c0,0 -237.895,-208.012 -152.545,-300.775c85.35,-92.762 134.437,-86.066 168.254,-45.258c33.821,40.808 66.721,295.308 94.575,325.492c27.85,30.179 -75.95,78.812 -110.284,20.541" style="fill:#4f3c74;fill-rule:nonzero;"/><path d="M1230.5,1702.68c-0,-0.001 -187.525,-305.601 -81.121,-373.184c106.404,-67.587 148.787,-13.642 170.925,34.513c22.137,48.158 4.779,265.233 23.896,301.583c19.116,36.346 -111.229,104.9 -113.7,37.087" style="fill:#4f3c74;fill-rule:nonzero;"/><path d="M1152.42,1552.1c-0,0 -17.159,114.8 -142.775,150.584c-75.063,21.383 -143.929,16.321 -184.638,-17.313c-40.712,-33.633 -46.679,-136.733 -32.754,-158.791c13.925,-22.055 246.092,-189.163 328.879,-201.63c35.146,-5.291 53.263,213.055 31.288,227.15" style="fill:#4f3c74;fill-rule:nonzero;"/><path d="M1278.39,1660.73c-0.18,-1.425 -18.513,-143.946 -54.396,-248.879c-30.488,-89.175 -66.554,-84.9 -66.892,-84.846l-0.667,-4.113c1.592,-0.287 39.696,-5.416 71.5,87.605c36.021,105.35 54.405,248.279 54.588,249.712l-4.133,0.521Z" style="fill:#fcddc6;fill-rule:nonzero;"/><path d="M1118.27,1627.83c-3.384,-4.304 -82.971,-106.125 -89.579,-172.267l4.145,-0.412c6.488,64.946 87.888,169.058 88.705,170.1l-3.271,2.579Z" style="fill:#fcddc6;fill-rule:nonzero;"/><path d="M1178.4,1694.36c0,0 77.575,-26.866 90.442,-30.408c20.896,-5.75 63.779,-14.417 71.038,-12.321c7.262,2.1 4.545,49.354 23.9,69.183c19.354,19.83 55.787,50.15 49.212,57.042c-6.575,6.896 -89.925,-8.425 -89.925,-8.425c0,0 69.1,6.204 62.363,13.517c-6.742,7.312 -104.038,35.608 -130.809,8.775c-26.771,-26.834 -76.221,-97.363 -76.221,-97.363" style="fill:#ec7979;fill-rule:nonzero;"/><path d="M1384.51,1784.82l-66.287,-32.525l-0.3,-0.408c-20.105,-27.429 -38.68,-88.237 -39.459,-90.808l3.988,-1.213c0.187,0.621 18.958,62.071 38.529,89.142l65.367,32.071l-1.838,3.741Z" style="fill:#241833;fill-rule:nonzero;"/><path d="M783.52,1462.38c-0,0 69.237,21.413 122.133,-23.346c21.467,-18.166 -70.667,242.879 -80.642,246.334c-9.975,3.45 -76.25,-73.575 -41.491,-222.988" style="fill:#4f3c74;fill-rule:nonzero;"/><path d="M2083.33,-31.25l-2083.33,0l0,271.213c0,-0 46.192,147.449 165.017,178.533c118.825,31.083 186.366,-40.779 232.166,41.979c26.113,47.183 41.342,120.358 136.4,140.462c95.063,20.105 160.825,-17.625 200.204,-6.825c39.38,10.796 67.217,112.88 138.417,122.88c120.629,16.941 106.963,77.041 169.463,147.912c62.5,-70.871 48.833,-130.971 169.462,-147.912c71.2,-10 99.038,-112.084 138.417,-122.88c39.379,-10.799 105.141,26.93 200.204,6.826c95.058,-20.105 110.287,-93.28 136.4,-140.463c45.8,-82.758 113.342,-10.896 232.167,-41.979c118.825,-31.084 165.016,-178.533 165.016,-178.533l0,-271.213Z" style="fill:#f6e8df;fill-rule:nonzero;"/><path d="M550.095,442.343c3.362,0.062 6.82,0.225 10.304,0.492l0.004,-0c8.05,-10.471 17.696,-20.038 28.033,-27.809c-13.896,-9.371 -26.087,-11.687 -32.316,-5.783c-7.192,6.817 -9.217,17.95 -6.025,33.1m72.441,3.112l0,0.005c8.088,-2.959 16.017,-4.917 23.613,-5.825c2.383,-12.534 2.358,-22.55 -0.075,-29.013c-3.625,-9.621 -12.429,-10.854 -19.179,-10.192c-9.563,0.938 -21.371,6.092 -33.413,14.563c10.629,7.854 20.854,18.575 29.046,30.462l0.008,0Zm-71.762,-0.158c0.629,2.571 1.408,5.25 2.316,8.017c1.63,-2.584 3.375,-5.154 5.217,-7.679c-2.546,-0.167 -5.067,-0.28 -7.533,-0.338m13.125,-2.162c14.216,1.35 29.291,4.366 43.816,8.77c4.009,-2.012 8.03,-3.812 11.984,-5.37c-8.138,-11.671 -18.259,-22.15 -28.725,-29.73c-9.925,7.346 -19.225,16.392 -27.075,26.33m47.896,10.05c5.287,1.712 10.458,3.591 15.441,5.62c-1.746,-3.27 -3.7,-6.541 -5.841,-9.77c-3.167,1.225 -6.384,2.612 -9.6,4.15m19.654,7.391c2.704,1.171 5.358,2.392 7.916,3.642c2.646,-7.546 4.717,-14.775 6.167,-21.542c-6.862,0.904 -14.012,2.679 -21.308,5.3c2.725,4.163 5.15,8.388 7.225,12.6m-84.8,11.379c3.758,0.617 7.712,1.375 11.808,2.267c-2.317,-4.846 -4.342,-9.542 -6.046,-14.029c-2.187,3.896 -4.121,7.837 -5.762,11.762m15.479,3.092c2.65,0.617 5.342,1.283 8.067,1.996c11.012,-9.288 22.35,-17.071 33.758,-23.183c-14.071,-4.067 -28.563,-6.805 -42.179,-7.963c-2.7,3.596 -5.196,7.292 -7.442,11.008c2.058,5.705 4.679,11.805 7.796,18.142m71.212,-10.417c1.134,2.584 2.134,5.155 2.996,7.7c0.704,-1.783 1.384,-3.562 2.029,-5.329c-1.637,-0.8 -3.316,-1.596 -5.025,-2.371m-69.487,13.85c0.487,0.95 0.975,1.888 1.458,2.805c0.717,-0.638 1.438,-1.275 2.163,-1.905c-1.217,-0.312 -2.425,-0.612 -3.621,-0.9m78.167,-12.937c6.787,3.454 12.895,7.125 18.179,10.933c15.096,-9.037 23.566,-18.554 22.162,-24.95c-1.05,-4.791 -7.946,-8.058 -19.408,-9.2c-4.604,-0.458 -9.429,-0.458 -14.342,0.004c-1.504,7.267 -3.721,15.063 -6.591,23.205l-0,0.008Zm-4.309,11.246c0.925,3.346 1.6,6.662 2.013,9.879c6.404,-2.671 12.333,-5.546 17.683,-8.571c-4.825,-3.383 -10.325,-6.662 -16.396,-9.771c-1.029,2.8 -2.137,5.638 -3.3,8.463m-1.912,4.5c-1.229,2.825 -2.521,5.646 -3.867,8.446c1.679,-0.621 3.338,-1.263 4.967,-1.913c-0.242,-2.133 -0.613,-4.317 -1.1,-6.533m-115.921,-8.054c-8.888,0.87 -13.55,3.725 -13.854,8.487c-0.3,4.688 11.866,14.683 31.054,19.663c-0.042,-3.684 0.292,-7.455 0.996,-11.23c0.975,-5.225 2.479,-10.55 4.475,-15.85c-9.071,-1.295 -16.692,-1.658 -22.671,-1.07m53.792,4.741c15.333,4.2 31.083,9.696 45.758,15.971c2.879,-0.879 5.746,-1.812 8.537,-2.787c2.375,-4.805 4.609,-9.696 6.638,-14.555c-1.308,-4.495 -3.096,-9.12 -5.321,-13.758c-6.771,-2.887 -13.929,-5.504 -21.296,-7.779c-11.575,5.925 -23.104,13.625 -34.316,22.908m-33.638,24.121c1.358,0.3 2.725,0.575 4.092,0.808c5.8,-6.791 12.166,-13.37 18.937,-19.583l-0.004,-0.004l0.004,-0c-0.975,-1.833 -1.966,-3.742 -2.95,-5.717c-5.1,-1.158 -10,-2.112 -14.587,-2.846c-2.046,5.338 -3.579,10.692 -4.559,15.938c-0.716,3.846 -1.029,7.675 -0.933,11.404m83.558,-6.337c0.555,0.245 1.105,0.491 1.655,0.741c0.275,-0.529 0.55,-1.058 0.82,-1.587c-0.825,0.275 -1.654,0.55 -2.487,0.816l0.05,0.021l-0.038,0.009Zm-56.845,-11.809c5.137,9.434 9.787,16.546 11.262,18.75c12.546,-1.541 24.954,-4.041 36.958,-7.446c-14.229,-5.904 -29.358,-11.05 -44.037,-14.975c-1.413,1.209 -2.808,2.434 -4.183,3.671m-19.192,19.484c5.504,0.733 11.008,0.929 16.392,0.583c3.637,-0.233 7.241,-0.546 10.787,-0.938c-1.992,-3.041 -5.921,-9.233 -10.225,-17.091c-6.021,5.558 -11.712,11.416 -16.954,17.446m-7.342,1.712c0.063,0.729 0.142,1.454 0.242,2.179c0.492,-0.608 0.987,-1.216 1.492,-1.825c-0.58,-0.112 -1.159,-0.233 -1.734,-0.354m87.709,-7.421c3,1.388 5.925,2.804 8.725,4.225c0.583,-3.521 0.758,-7.229 0.525,-11.071c-2.321,0.917 -4.7,1.809 -7.105,2.663c-0.7,1.396 -1.412,2.787 -2.145,4.183m-94.7,-51.816c-9.396,0.916 -17.905,2.816 -25.284,5.641c-10.958,4.192 -16.833,10.275 -17.454,18.079c-1.117,14.055 15.533,33.625 41.55,48.95c1.85,-2.687 3.842,-5.408 5.942,-8.12l-0.004,-0l0.004,-0.005c-0.367,-1.966 -0.629,-3.979 -0.771,-6l-0.013,-0.008c-18.775,-4.692 -34.591,-15.267 -34.104,-22.917c0.284,-4.408 3.379,-9.937 16.504,-11.225c6.363,-0.62 14.455,-0.225 24.059,1.188l0.004,-0.004l0.004,-0c2.046,-4.979 4.542,-9.988 7.438,-14.9l-0,-0.004c-1.38,-3.942 -2.509,-7.746 -3.359,-11.33c-5.021,-0.02 -9.896,0.2 -14.516,0.655m1.37,74.145c2.684,1.517 5.417,2.959 8.18,4.317c-1.68,-3.262 -3,-6.667 -3.942,-10.183c-1.479,1.962 -2.896,3.925 -4.238,5.866m104.809,-16.687c13.741,7.192 24.462,14.55 31.175,21.392c1.491,-1.663 2.958,-3.405 4.362,-5.184c3.475,-4.396 4.896,-9.15 4.221,-14.125c-1.096,-8.112 -7.708,-16.904 -19.137,-25.458c-5.971,3.45 -12.68,6.721 -19.971,9.729l-0.009,0.004c0.367,4.746 0.146,9.321 -0.654,13.634l0.013,0.008Zm-59.429,2.05c7.65,10.279 15.158,19.246 22.35,26.696c7.77,-9.813 15.008,-20.909 21.537,-33.013c-1.521,-0.683 -3.054,-1.362 -4.604,-2.029c-12.717,3.808 -25.917,6.613 -39.283,8.346m24.425,28.812c0.612,0.621 1.225,1.221 1.829,1.813c4.3,-1.142 8.133,-2.888 11.404,-5.183c9.75,-6.85 15.942,-15.563 18.412,-25.913c-3.033,-1.554 -6.22,-3.104 -9.5,-4.621c-6.7,12.442 -14.141,23.838 -22.145,33.904m-57,-7.679c18.395,8.317 36.291,12.188 50.512,10.925c0.858,-1.004 1.713,-2.021 2.554,-3.05c-7.671,-7.921 -15.683,-17.529 -23.846,-28.596l-0.004,0c-4.1,0.48 -8.262,0.855 -12.479,1.125c-6.187,0.396 -12.525,0.105 -18.842,-0.875c-1.433,1.705 -2.825,3.417 -4.162,5.117c1.175,5.417 3.283,10.579 6.267,15.354m3.241,4.613c7.734,9.825 19.179,17.233 32.796,21.15c3.946,-3.496 7.883,-7.425 11.742,-11.717c-12.984,0.517 -28.509,-2.771 -44.538,-9.433m58.05,7.233c6.196,5.804 12.238,10.525 17.988,14.054c15.571,-4.212 30.021,-13.021 41.9,-25.525c-6.371,-6.537 -16.634,-13.616 -29.846,-20.587c-2.75,10.754 -9.275,19.808 -19.413,26.929c-3.112,2.183 -6.679,3.904 -10.629,5.129m-21.85,14.813c11.55,2.75 23.867,2.837 35.884,0.208c-5.596,-3.696 -11.421,-8.433 -17.363,-14.121l-0.008,-0.004c-1.909,0.433 -3.913,0.767 -5.979,0.992l-0,0.004c-4.1,4.725 -8.305,9.058 -12.534,12.921m43.371,1.283c8.479,4.587 16.354,6.562 23.45,5.867c11.433,-1.121 16.854,-8.884 16.908,-8.963l0.284,-0.308c3.354,-2.746 5.171,-5.788 5.4,-9.046c0.275,-3.883 -1.638,-8.233 -5.684,-12.946c-11.516,12.083 -25.383,20.8 -40.358,25.396m-97.271,-31.992c-12.575,18.967 -17.312,35.279 -12.671,43.796c2.68,4.913 8.446,7.308 17.142,7.121c14.35,-0.313 28.833,-6.671 43.379,-18.829c-15.216,-4.779 -27.704,-13.834 -35.404,-25.721l-0.004,-0c-4.208,-1.933 -8.388,-4.071 -12.442,-6.367m8.604,53.613c-1.354,0.133 -2.708,0.216 -4.07,0.246c-9.884,0.212 -16.538,-2.7 -19.784,-8.655c-5.237,-9.608 -0.608,-26.57 12.7,-46.683c-27.287,-16.104 -44.058,-36.262 -42.833,-51.625c0.717,-9.033 7.221,-15.962 19.333,-20.596c11.188,-4.279 24.854,-6.491 40.2,-6.487c-3.225,-15.9 -0.871,-27.738 7.009,-35.204c2.429,-2.305 5.5,-3.65 9.133,-4.005c7.437,-0.729 17.25,2.846 27.721,10.08c12.741,-9.117 25.371,-14.675 35.658,-15.684c10.988,-1.075 18.879,3.217 22.217,12.084c2.571,6.812 2.691,17.066 0.371,29.741c4.808,-0.4 9.529,-0.379 14.05,0.075c16.45,1.634 21.037,7.154 21.991,11.492c1.696,7.737 -6.475,17.692 -22.487,27.479c11.483,8.817 18.154,18.017 19.325,26.688c0.783,5.795 -0.842,11.291 -4.829,16.337c-1.505,1.904 -3.067,3.758 -4.667,5.533c4.721,5.417 6.942,10.567 6.608,15.317c-0.283,4.046 -2.412,7.742 -6.321,10.992c-0.966,1.316 -7.004,8.879 -18.92,10.05c-8.417,0.821 -17.742,-1.759 -27.73,-7.675c-13.979,3.558 -28.558,3.537 -42.041,-0.046c-14.192,12.254 -28.534,19.167 -42.634,20.546" style="fill:#4f3c74;fill-rule:nonzero;"/><path d="M368.164,51.767c3.196,-1.045 6.516,-2.025 9.896,-2.916l0.004,-0c4.166,-12.534 10.141,-24.734 17.358,-35.463c-16.204,-4.296 -28.479,-2.487 -32.425,5.134c-4.558,8.8 -2.821,19.979 5.167,33.245m69.45,-20.825l0.008,0.005c6.667,-5.446 13.517,-9.896 20.392,-13.246c-1.859,-12.621 -5.171,-22.079 -9.592,-27.388c-6.579,-7.896 -15.3,-6.171 -21.458,-3.333c-8.729,4.021 -18.188,12.767 -26.788,24.721c12.621,3.929 25.796,10.704 37.434,19.246l0.004,-0.005Zm-67.842,23.396c1.442,2.217 3.054,4.496 4.821,6.809c0.692,-2.975 1.496,-5.975 2.408,-8.963c-2.458,0.675 -4.875,1.396 -7.229,2.154m11.692,-6.35c13.871,-3.387 29.104,-5.487 44.271,-6.087c3.125,-3.221 6.329,-6.238 9.558,-9.009c-11.517,-8.354 -24.517,-14.933 -36.892,-18.662c-6.962,10.196 -12.783,21.796 -16.937,33.758m48.541,-6.221c5.559,-0.116 11.059,-0.033 16.43,0.246c-2.721,-2.521 -5.638,-4.971 -8.721,-7.316c-2.592,2.195 -5.171,4.562 -7.709,7.07m20.992,0.538c2.938,0.217 5.846,0.5 8.671,0.842c0.029,-7.996 -0.388,-15.505 -1.238,-22.371c-6.187,3.1 -12.358,7.129 -18.391,11.996c3.941,3.033 7.616,6.233 10.958,9.533m-76.375,38.567c3.754,-0.65 7.738,-1.234 11.9,-1.734c-3.779,-3.816 -7.233,-7.591 -10.312,-11.266c-0.792,4.395 -1.321,8.754 -1.588,13m15.638,-2.159c2.708,-0.287 5.47,-0.537 8.275,-0.758l0.004,-0c7.354,-12.388 15.508,-23.463 24.279,-32.975c-14.625,0.771 -29.213,2.942 -42.454,6.317c-1.371,4.279 -2.521,8.591 -3.421,12.837c3.821,4.713 8.296,9.613 13.317,14.579m63.854,-33.2c1.921,2.067 3.708,4.167 5.358,6.288c0.079,-1.917 0.133,-3.817 0.167,-5.696c-1.813,-0.221 -3.659,-0.421 -5.525,-0.592m-61.1,35.879c0.775,0.738 1.541,1.463 2.3,2.171c0.466,-0.837 0.937,-1.675 1.416,-2.508c-1.25,0.104 -2.487,0.217 -3.716,0.337m69.6,-37.866c7.546,1.037 14.516,2.504 20.758,4.362c11.296,-13.483 16.179,-25.254 12.754,-30.837c-2.566,-4.179 -10.15,-5.004 -21.358,-2.325c-4.496,1.079 -9.054,2.662 -13.546,4.712c0.967,7.359 1.429,15.446 1.388,24.084l0.004,-0l-0,0.004Zm-0.384,12.037c1.971,2.859 3.696,5.767 5.146,8.675c5.171,-4.625 9.829,-9.287 13.892,-13.896c-5.671,-1.616 -11.942,-2.908 -18.696,-3.854c-0.054,2.984 -0.171,6.025 -0.342,9.075m-0.329,4.879c-0.237,3.071 -0.529,6.163 -0.883,9.25c1.383,-1.141 2.742,-2.291 4.067,-3.437c-0.93,-1.938 -1.996,-3.879 -3.184,-5.813m-112.15,30.421c-8.108,3.738 -11.575,7.963 -10.3,12.559c1.25,4.529 16.029,9.983 35.788,8.387c-1.25,-3.467 -2.175,-7.133 -2.746,-10.929c-0.796,-5.258 -1.121,-10.779 -0.971,-16.446c-8.996,1.754 -16.312,3.913 -21.771,6.429m52.371,-13.166c15.867,-1.063 32.546,-1.042 48.467,0.07c2.433,-1.775 4.833,-3.595 7.15,-5.429c0.671,-5.321 1.171,-10.671 1.496,-15.929c-2.713,-3.817 -5.917,-7.596 -9.542,-11.25c-7.342,-0.508 -14.958,-0.633 -22.667,-0.362c-8.987,9.391 -17.354,20.45 -24.904,32.9m-23.858,33.816c1.379,-0.158 2.758,-0.35 4.125,-0.575c3.254,-8.321 7.108,-16.625 11.466,-24.712l-0.004,-0.004l0.004,-0c-1.525,-1.413 -3.083,-2.892 -4.662,-4.434c-5.196,0.579 -10.138,1.284 -14.713,2.096c-0.183,5.713 0.125,11.279 0.921,16.554c0.584,3.867 1.546,7.588 2.863,11.075m76.854,-33.396c0.6,0.05 1.204,0.105 1.8,0.159c0.087,-0.592 0.175,-1.179 0.258,-1.767c-0.687,0.529 -1.383,1.058 -2.079,1.583l0.05,0.005l-0.029,0.02Zm-57.575,7.492c7.946,7.229 14.671,12.421 16.787,14.021c11.35,-5.575 22.25,-12.008 32.471,-19.158c-15.379,-0.909 -31.354,-0.809 -46.512,0.3c-0.938,1.604 -1.854,3.22 -2.746,4.837m-11.742,24.704c5.442,-1.112 10.704,-2.733 15.679,-4.825c3.359,-1.416 6.659,-2.896 9.884,-4.425c-2.879,-2.221 -8.625,-6.783 -15.267,-12.791c-3.867,7.225 -7.317,14.625 -10.296,22.041m-6.371,4.025c0.3,0.667 0.613,1.329 0.942,1.984c0.263,-0.742 0.538,-1.48 0.813,-2.221c-0.584,0.087 -1.171,0.162 -1.755,0.237m80.421,-35.783c3.292,0.325 6.517,0.708 9.629,1.129c-0.604,-3.521 -1.654,-7.079 -3.137,-10.629c-1.892,1.629 -3.85,3.25 -5.838,4.842c-0.204,1.55 -0.42,3.1 -0.654,4.658m-106.458,-17.883c-8.575,3.95 -15.988,8.533 -22.033,13.62c-8.98,7.559 -12.53,15.23 -10.559,22.809c3.559,13.646 25.704,26.666 55.313,32.612c0.862,-3.146 1.854,-6.371 2.946,-9.621l-0,-0.004c-0.996,-1.737 -1.9,-3.554 -2.696,-5.416l-0.017,-0.005c-19.275,1.725 -37.687,-3.07 -39.733,-10.458c-1.179,-4.258 -0.071,-10.496 11.908,-16.017c5.808,-2.679 13.579,-4.954 23.117,-6.775l-0,-0.004l0.004,0c0.3,-5.375 1.017,-10.925 2.142,-16.516l-0.005,-0.005c-2.595,-3.27 -4.908,-6.491 -6.891,-9.6c-4.746,1.63 -9.284,3.438 -13.496,5.38m25.617,69.595c3.033,0.55 6.091,1.017 9.145,1.392c-2.658,-2.529 -5.02,-5.312 -7.066,-8.325c-0.754,2.338 -1.45,4.654 -2.079,6.933m93.533,-50.145c15.342,2.283 27.883,5.716 36.467,9.979c0.866,-2.063 1.679,-4.188 2.425,-6.329c1.837,-5.296 1.62,-10.25 -0.646,-14.725c-3.7,-7.309 -12.829,-13.442 -26.434,-17.775c-4.508,5.22 -9.77,10.508 -15.675,15.741l-0.004,0.009c1.9,4.362 3.196,8.754 3.854,13.091l0.013,0.009Zm-55.467,21.429c10.6,7.2 20.634,13.208 29.871,17.887c4.121,-11.821 7.321,-24.675 9.517,-38.25c-1.659,-0.15 -3.334,-0.283 -5.017,-0.408c-10.762,7.771 -22.312,14.75 -34.371,20.771m32.525,19.208c0.784,0.379 1.559,0.75 2.325,1.113c3.688,-2.496 6.734,-5.4 9.071,-8.642c6.963,-9.667 9.954,-19.933 8.896,-30.521c-3.379,-0.471 -6.896,-0.887 -10.492,-1.246c-2.25,13.954 -5.541,27.159 -9.8,39.296m-56.362,11.442c20.104,1.825 38.283,-0.396 51.3,-6.25c0.483,-1.229 0.954,-2.471 1.412,-3.721c-9.841,-4.963 -20.566,-11.413 -31.908,-19.188c-3.717,1.796 -7.529,3.517 -11.421,5.155c-5.717,2.408 -11.8,4.208 -18.087,5.358c-0.796,2.079 -1.546,4.15 -2.255,6.2c2.892,4.729 6.571,8.912 10.959,12.446m4.575,3.296c10.529,6.745 23.771,9.987 37.916,9.22c2.584,-4.6 5.013,-9.604 7.25,-14.92c-12.095,4.745 -27.837,6.733 -45.166,5.7m57.208,-12.213c7.758,3.45 15.013,5.929 21.604,7.379c13.325,-9.091 24.088,-22.15 31.209,-37.862c-8.167,-4.084 -20.18,-7.404 -34.95,-9.654c0.929,11.062 -2.263,21.75 -9.505,31.804c-2.22,3.087 -5.025,5.883 -8.358,8.333m-15.779,21.158c11.812,-1.187 23.475,-5.145 33.962,-11.57c-6.495,-1.659 -13.554,-4.221 -21.033,-7.646l-0.008,-0c-1.659,1.037 -3.442,2.008 -5.321,2.9l-0,0.004c-2.321,5.808 -4.871,11.279 -7.6,16.312m41.392,-13.012c9.516,1.554 17.604,0.833 24.075,-2.15c10.433,-4.808 13.008,-13.921 13.033,-14.013l0.167,-0.387c2.27,-3.692 2.987,-7.163 2.133,-10.317c-1.013,-3.754 -4.246,-7.237 -9.613,-10.362c-6.92,15.191 -17.158,27.975 -29.795,37.229m-102.384,1.687c-5.658,22.046 -4.779,39.009 2.4,45.53c4.142,3.762 10.375,4.133 18.529,1.104c13.45,-5.004 25.05,-15.759 34.8,-32.017c-15.941,0.475 -30.712,-3.983 -41.883,-12.683l-0.004,-0c-4.608,-0.442 -9.258,-1.092 -13.842,-1.934m25.717,47.825c-1.233,0.567 -2.488,1.092 -3.763,1.567c-9.266,3.442 -16.512,2.875 -21.533,-1.683c-8.1,-7.359 -9.287,-24.9 -3.317,-48.267c-31.058,-6.258 -53.512,-19.804 -57.4,-34.717c-2.283,-8.77 1.588,-17.45 11.509,-25.8c9.166,-7.712 21.354,-14.283 35.85,-19.316c-8.263,-13.963 -9.925,-25.917 -4.929,-35.554c1.537,-2.971 3.995,-5.255 7.312,-6.78c6.788,-3.129 17.229,-2.97 29.496,0.43c9.046,-12.792 19.154,-22.188 28.537,-26.513c10.03,-4.621 18.888,-3.154 24.955,4.125c4.658,5.596 8.141,15.242 10.108,27.971c4.408,-1.954 8.875,-3.479 13.292,-4.538c16.075,-3.85 22.22,-0.141 24.545,3.646c4.142,6.75 -0.312,18.834 -12.229,33.329c13.742,4.567 23.059,11.067 27.013,18.875c2.641,5.217 2.908,10.942 0.8,17.017c-0.796,2.292 -1.667,4.558 -2.596,6.758c6.233,3.571 10.025,7.705 11.267,12.3c1.058,3.917 0.262,8.109 -2.367,12.459c-0.479,1.562 -3.7,10.687 -14.575,15.7c-7.683,3.541 -17.338,4.158 -28.713,1.846c-12.037,7.945 -25.816,12.712 -39.729,13.75c-9.387,16.233 -20.666,27.466 -33.533,33.395" style="fill:#4f3c74;fill-rule:nonzero;"/><path d="M1109.87,273.585c-3.359,-0.163 -6.809,-0.429 -10.288,-0.8l-0.004,-0c-8.354,10.225 -18.283,19.5 -28.85,26.954c13.608,9.783 25.725,12.467 32.129,6.75c7.392,-6.596 9.75,-17.662 7.013,-32.904m-72.313,-5.279l-0.004,-0.004c-8.171,2.712 -16.154,4.433 -23.775,5.112c-2.758,12.458 -3.033,22.471 -0.792,29.004c3.334,9.725 12.101,11.221 18.863,10.763c9.587,-0.65 21.546,-5.45 33.833,-13.559c-10.387,-8.17 -20.291,-19.191 -28.121,-31.316l-0.004,-0Zm71.725,2.304c-0.558,-2.583 -1.254,-5.288 -2.079,-8.079c-1.704,2.533 -3.525,5.05 -5.442,7.516c2.538,0.246 5.055,0.434 7.521,0.563m-13.187,1.771c-14.167,-1.775 -29.146,-5.242 -43.534,-10.079c-4.066,1.891 -8.137,3.57 -12.141,5.008c7.787,11.912 17.587,22.687 27.825,30.579c10.137,-7.046 19.708,-15.812 27.85,-25.508m-47.571,-11.479c-5.237,-1.871 -10.346,-3.905 -15.267,-6.084c1.646,3.325 3.5,6.654 5.542,9.946c3.204,-1.129 6.463,-2.425 9.725,-3.862m-19.425,-7.98c-2.667,-1.25 -5.283,-2.55 -7.804,-3.875c-2.871,7.463 -5.158,14.625 -6.808,21.346c6.887,-0.696 14.087,-2.258 21.458,-4.658c-2.604,-4.242 -4.9,-8.538 -6.846,-12.813m85.104,-8.837c-3.741,-0.725 -7.671,-1.6 -11.737,-2.617c2.171,4.913 4.054,9.671 5.621,14.204c2.308,-3.829 4.354,-7.708 6.116,-11.587m-15.383,-3.55c-2.629,-0.696 -5.3,-1.442 -8,-2.238l-0.004,0c-11.284,8.955 -22.85,16.396 -34.434,22.163c13.942,4.487 28.346,7.658 41.921,9.221c2.804,-3.513 5.413,-7.134 7.767,-10.779c-1.888,-5.763 -4.325,-11.938 -7.25,-18.367m-71.488,8.279c-1.058,-2.617 -1.983,-5.217 -2.766,-7.783c-0.759,1.762 -1.488,3.521 -2.188,5.262c1.613,0.85 3.267,1.696 4.954,2.521m69.867,-11.762c-0.458,-0.967 -0.917,-1.917 -1.375,-2.846c-0.733,0.616 -1.471,1.229 -2.217,1.837c1.205,0.35 2.405,0.684 3.592,1.009m-78.521,10.591c-6.679,-3.658 -12.675,-7.508 -17.841,-11.471c-15.359,8.58 -24.113,17.838 -22.9,24.275c0.908,4.821 7.699,8.292 19.125,9.775c4.587,0.596 9.408,0.738 14.337,0.425c1.721,-7.22 4.167,-14.945 7.283,-22.995l-0.004,-0.005l0,-0.004Zm4.646,-11.108c-0.825,-3.379 -1.4,-6.708 -1.717,-9.942c-6.479,2.484 -12.495,5.179 -17.929,8.038c4.721,3.529 10.121,6.971 16.092,10.258c1.116,-2.767 2.308,-5.571 3.554,-8.354m2.046,-4.446c1.312,-2.783 2.691,-5.567 4.117,-8.325c-1.696,0.571 -3.375,1.158 -5.021,1.763c0.179,2.141 0.483,4.333 0.904,6.562m115.629,11.521c8.908,-0.604 13.654,-3.317 14.1,-8.067c0.442,-4.675 -11.421,-15.033 -30.45,-20.583c-0.071,3.683 -0.512,7.442 -1.329,11.196c-1.133,5.191 -2.796,10.466 -4.95,15.708c9.029,1.567 16.633,2.154 22.629,1.746m-53.625,-6.35c-15.204,-4.654 -30.783,-10.621 -45.262,-17.329c-2.905,0.791 -5.796,1.637 -8.613,2.525c-2.525,4.733 -4.9,9.554 -7.071,14.354c1.171,4.529 2.821,9.204 4.904,13.908c6.68,3.092 13.755,5.921 21.055,8.417c11.745,-5.579 23.5,-12.929 34.987,-21.875m34.342,-23.1c-1.346,-0.342 -2.705,-0.654 -4.063,-0.933c-6.004,6.616 -12.562,13.004 -19.516,19.008l-0,0.004c0.92,1.863 1.85,3.8 2.775,5.8c5.066,1.313 9.933,2.413 14.495,3.283c2.209,-5.27 3.9,-10.579 5.038,-15.795c0.829,-3.817 1.258,-7.638 1.271,-11.367m-83.713,3.829c-0.541,-0.258 -1.087,-0.525 -1.625,-0.787c-0.291,0.52 -0.583,1.037 -0.871,1.558c0.834,-0.25 1.667,-0.496 2.509,-0.738l-0.046,-0.02l0.033,-0.013Zm56.471,13.508c-4.854,-9.583 -9.287,-16.829 -10.696,-19.079c-12.587,1.167 -25.066,3.296 -37.166,6.334c14.05,6.329 29.012,11.925 43.57,16.287c1.446,-1.162 2.88,-2.35 4.292,-3.542m19.767,-18.9c-5.479,-0.9 -10.975,-1.262 -16.367,-1.075c-3.646,0.125 -7.254,0.33 -10.812,0.613c1.9,3.1 5.641,9.412 9.712,17.392c6.183,-5.375 12.046,-11.059 17.467,-16.93m7.391,-1.491c-0.045,-0.729 -0.104,-1.463 -0.179,-2.188c-0.508,0.596 -1.025,1.188 -1.546,1.784c0.575,0.129 1.15,0.262 1.725,0.404m-87.895,4.791c-2.959,-1.479 -5.838,-2.983 -8.592,-4.483c-0.692,3.5 -0.979,7.204 -0.858,11.046c2.35,-0.846 4.754,-1.667 7.183,-2.446c0.742,-1.375 1.496,-2.746 2.267,-4.117m93.104,54.63c9.421,-0.638 17.983,-2.28 25.441,-4.884c11.084,-3.858 17.134,-9.766 17.988,-17.55c1.537,-14.012 -14.517,-34.071 -40.063,-50.171c-1.929,2.63 -4.004,5.292 -6.183,7.938l0.004,0l-0.004,0.004c0.308,1.979 0.508,3.996 0.592,6.021l0.012,0.013c18.625,5.25 34.121,16.291 33.4,23.924c-0.412,4.4 -3.671,9.834 -16.829,10.726c-6.383,0.433 -14.454,-0.209 -24.017,-1.905l-0.004,0c-2.196,4.917 -4.841,9.846 -7.883,14.671l0.004,0.004l-0.004,0.004c1.262,3.98 2.275,7.813 3.021,11.421c5.016,0.171 9.9,0.096 14.525,-0.216m0.854,-74.155c-2.638,-1.595 -5.329,-3.12 -8.05,-4.562c1.583,3.312 2.8,6.754 3.637,10.3c1.538,-1.917 3.013,-3.838 4.413,-5.738m-105.263,13.542c-13.516,-7.6 -24.012,-15.275 -30.516,-22.317c-1.546,1.621 -3.063,3.313 -4.521,5.055c-3.604,4.287 -5.167,8.995 -4.642,13.987c0.854,8.142 7.2,17.129 18.367,26.021c6.071,-3.271 12.875,-6.338 20.254,-9.125l0.008,-0.004c-0.221,-4.754 0.134,-9.321 1.063,-13.609l-0.013,-0.008Zm59.467,-0.271c-7.342,-10.504 -14.575,-19.687 -21.542,-27.354c-8.062,9.579 -15.629,20.45 -22.516,32.354c1.495,0.729 3.012,1.45 4.541,2.167c12.825,-3.429 26.1,-5.838 39.517,-7.167m-23.554,-29.529c-0.596,-0.637 -1.188,-1.258 -1.775,-1.871c-4.329,1.017 -8.213,2.646 -11.55,4.842c-9.954,6.554 -16.404,15.079 -19.183,25.354c2.987,1.642 6.125,3.283 9.358,4.9c7.071,-12.237 14.85,-23.404 23.15,-33.225m56.746,9.379c-18.138,-8.862 -35.913,-13.266 -50.167,-12.429c-0.883,0.975 -1.767,1.971 -2.642,2.971c7.429,8.146 15.154,17.992 22.979,29.296l0.005,-0c4.112,-0.354 8.283,-0.604 12.504,-0.75c6.2,-0.213 12.525,0.271 18.812,1.437c1.484,-1.658 2.925,-3.329 4.313,-4.991c-1.017,-5.446 -2.967,-10.667 -5.804,-15.534m-3.105,-4.708c-7.433,-10.05 -18.649,-17.8 -32.145,-22.121c-4.05,3.375 -8.105,7.188 -12.088,11.363c12.992,-0.129 28.413,3.62 44.233,10.758m-57.804,-8.967c-6.02,-5.983 -11.916,-10.883 -17.558,-14.587c-15.692,3.746 -30.4,12.116 -42.65,24.262c6.175,6.725 16.217,14.104 29.221,21.471c3.071,-10.667 9.858,-19.521 20.208,-26.333c3.175,-2.092 6.792,-3.704 10.779,-4.813m22.284,-14.15c-11.463,-3.096 -23.771,-3.55 -35.863,-1.283c5.484,3.862 11.163,8.771 16.934,14.637l0.008,0.005c1.921,-0.38 3.933,-0.65 6.004,-0.817l0.004,-0.004c4.234,-4.6 8.567,-8.804 12.913,-12.538m-43.313,-2.583c-8.341,-4.842 -16.154,-7.046 -23.262,-6.567c-11.463,0.779 -17.117,8.38 -17.171,8.454l-0.296,0.3c-3.433,2.646 -5.342,5.63 -5.667,8.884c-0.391,3.866 1.388,8.275 5.292,13.104c11.875,-11.729 26,-20.029 41.104,-24.175m96.267,34.892c13.137,-18.584 18.362,-34.746 13.975,-43.396c-2.529,-4.992 -8.221,-7.559 -16.921,-7.634c-14.35,-0.116 -29.021,5.805 -43.921,17.525c15.067,5.23 27.279,14.659 34.621,26.767l0.004,0.004c4.146,2.054 8.259,4.317 12.242,6.734m-6.996,-53.846c1.358,-0.092 2.717,-0.134 4.075,-0.125c9.888,0.083 16.454,3.196 19.521,9.241c4.946,9.763 -0.192,26.58 -14.092,46.284c26.792,16.912 42.95,37.566 41.267,52.883c-0.988,9.008 -7.696,15.742 -19.942,20.008c-11.312,3.946 -25.041,5.746 -40.375,5.28c2.746,15.991 0.038,27.754 -8.062,34.983c-2.496,2.229 -5.604,3.483 -9.25,3.729c-7.454,0.504 -17.159,-3.362 -27.404,-10.908c-13.009,8.729 -25.8,13.908 -36.113,14.608c-11.012,0.746 -18.771,-3.779 -21.846,-12.742c-2.362,-6.887 -2.179,-17.141 0.521,-29.737c-4.817,0.254 -9.533,0.092 -14.042,-0.496c-16.391,-2.129 -20.812,-7.783 -21.637,-12.15c-1.467,-7.783 7.004,-17.487 23.3,-26.787c-11.213,-9.163 -17.604,-18.555 -18.517,-27.255c-0.612,-5.816 1.179,-11.262 5.313,-16.187c1.562,-1.858 3.183,-3.667 4.833,-5.392c-4.554,-5.554 -6.621,-10.771 -6.146,-15.508c0.404,-4.037 2.642,-7.667 6.646,-10.796c1.008,-1.287 7.267,-8.666 19.217,-9.479c8.437,-0.571 17.679,2.287 27.483,8.504c14.079,-3.141 28.65,-2.687 42.021,1.3c14.554,-11.825 29.096,-18.3 43.229,-19.258" style="fill:#4f3c74;fill-rule:nonzero;"/><path d="M1929.99,114.437c3.166,1.129 6.391,2.392 9.612,3.754l0.004,0c10.963,-7.358 23.159,-13.35 35.434,-17.416c-10.184,-13.313 -20.996,-19.396 -28.784,-15.788c-8.991,4.167 -14.462,14.071 -16.266,29.45m67.666,26.05l0,0.008c8.605,-0.225 16.746,0.446 24.234,2.009c6.258,-11.117 9.429,-20.621 9.183,-27.525c-0.371,-10.275 -8.321,-14.25 -14.929,-15.775c-9.363,-2.163 -22.196,-1.042 -36.313,3.15c7.571,10.833 13.846,24.254 17.817,38.133l0.008,0Zm-67.966,-23.033c-0.221,2.637 -0.338,5.425 -0.359,8.337c2.367,-1.929 4.842,-3.808 7.392,-5.612c-2.358,-0.971 -4.712,-1.884 -7.033,-2.725m13.129,2.137c13.046,5.813 26.371,13.479 38.733,22.288c4.442,-0.634 8.825,-1.059 13.071,-1.271c-3.992,-13.658 -10.242,-26.817 -17.746,-37.338c-11.746,3.796 -23.45,9.405 -34.058,16.321m42.192,24.796c4.466,3.308 8.766,6.742 12.841,10.254c-0.608,-3.658 -1.416,-7.383 -2.416,-11.125c-3.392,0.15 -6.884,0.442 -10.425,0.871m16.27,13.275c2.188,1.971 4.313,3.975 6.342,5.975c4.913,-6.304 9.183,-12.496 12.713,-18.45c-6.792,-1.333 -14.134,-1.925 -21.884,-1.771c1.259,4.813 2.209,9.592 2.829,14.246m-84,-16.254c3.367,1.779 6.871,3.758 10.471,5.912c-0.654,-5.333 -1.075,-10.433 -1.258,-15.225c-3.321,2.996 -6.404,6.113 -9.213,9.313m13.684,7.862c2.316,1.43 4.654,2.921 7.008,4.467l0.004,0c13.396,-5.292 26.625,-9.054 39.384,-11.208c-12.038,-8.342 -24.9,-15.559 -37.438,-21c-3.7,2.55 -7.25,5.254 -10.562,8.062c0.133,6.063 0.675,12.679 1.604,19.679m70.816,12.838c0.25,2.812 0.38,5.567 0.384,8.254c1.237,-1.467 2.446,-2.937 3.621,-4.404c-1.296,-1.283 -2.634,-2.571 -4.005,-3.85m-70.275,-9.033c0.155,1.058 0.321,2.1 0.488,3.125c0.879,-0.38 1.767,-0.75 2.654,-1.117c-1.05,-0.683 -2.1,-1.354 -3.142,-2.008m78.213,12.666c5.329,5.438 9.946,10.867 13.742,16.159c17.187,-3.75 28.254,-10.067 28.962,-16.58c0.529,-4.875 -4.962,-10.17 -15.462,-14.908c-4.217,-1.904 -8.788,-3.437 -13.596,-4.571c-3.742,6.409 -8.325,13.092 -13.646,19.892l-0,0.008Zm-7.671,9.284c-0.192,3.47 -0.608,6.825 -1.246,10.008c6.921,-0.492 13.463,-1.325 19.492,-2.483c-3.492,-4.75 -7.658,-9.609 -12.421,-14.492c-1.871,2.325 -3.825,4.662 -5.825,6.967m-3.25,3.658c-2.067,2.283 -4.192,4.546 -6.358,6.771c1.791,-0.054 3.566,-0.129 5.321,-0.229c0.445,-2.1 0.795,-4.288 1.037,-6.542m-107.3,-44.604c-8.7,-2.009 -14.029,-0.788 -15.837,3.625c-1.78,4.346 6.566,17.704 23.166,28.541c1.134,-3.508 2.65,-6.97 4.521,-10.325c2.588,-4.641 5.713,-9.208 9.296,-13.595c-8.183,-4.121 -15.292,-6.892 -21.146,-8.246m49.471,21.65c13.196,8.871 26.371,19.1 38.279,29.729c3.008,0.083 6.025,0.112 8.979,0.083c3.784,-3.796 7.459,-7.721 10.929,-11.683c0.196,-4.675 -0.025,-9.629 -0.654,-14.733c-5.491,-4.9 -11.441,-9.659 -17.7,-14.167c-12.858,1.925 -26.241,5.546 -39.833,10.771m-39.571,12.133c1.188,0.721 2.4,1.413 3.617,2.071c7.666,-4.583 15.796,-8.792 24.196,-12.521l-0,-0.004c-0.338,-2.05 -0.667,-4.175 -0.971,-6.358c-4.467,-2.725 -8.804,-5.192 -12.917,-7.35c-3.646,4.404 -6.804,8.991 -9.404,13.654c-1.908,3.412 -3.425,6.941 -4.521,10.508m81.217,20.642c0.446,0.408 0.887,0.816 1.329,1.229c0.429,-0.413 0.858,-0.825 1.283,-1.242c-0.866,0 -1.741,-0.008 -2.612,-0.021l0.037,0.034l-0.037,-0Zm-50.113,-29.321c1.859,10.579 4,18.8 4.692,21.362c12.387,2.538 24.946,4.125 37.404,4.73c-11.604,-10.134 -24.3,-19.838 -36.962,-28.238c-1.721,0.696 -3.438,1.413 -5.134,2.146m-24.404,12.346c4.983,2.45 10.138,4.391 15.35,5.783c3.525,0.933 7.038,1.788 10.525,2.55c-0.917,-3.517 -2.667,-10.642 -4.246,-19.462c-7.479,3.35 -14.737,7.083 -21.629,11.129m-7.504,-0.721c-0.171,0.712 -0.329,1.429 -0.467,2.146c0.659,-0.421 1.325,-0.842 1.996,-1.259c-0.512,-0.291 -1.025,-0.587 -1.529,-0.887m85.496,20.942c2.4,2.27 4.721,4.545 6.921,6.783c1.675,-3.15 3.025,-6.608 4.029,-10.321c-2.492,0.125 -5.034,0.213 -7.584,0.254c-1.108,1.1 -2.229,2.192 -3.366,3.284m-73.229,-79.313c-9.2,-2.125 -17.867,-3.042 -25.763,-2.717c-11.725,0.475 -19.233,4.371 -22.308,11.571c-5.542,12.963 3.996,36.821 23.771,59.642c2.608,-1.954 5.362,-3.9 8.216,-5.8l0.004,-0.004c0.275,-1.984 0.671,-3.971 1.184,-5.934l-0.009,-0.012c-16.3,-10.433 -27.92,-25.5 -25.016,-32.592c1.675,-4.091 6.371,-8.346 19.221,-5.379c6.229,1.442 13.77,4.396 22.425,8.796l0.008,-0c3.525,-4.067 7.492,-8.017 11.8,-11.75l-0,-0.004l0.004,-0c-0.05,-4.175 0.092,-8.138 0.425,-11.809c-4.75,-1.62 -9.442,-2.966 -13.962,-4.008m-22.35,70.713c2.062,2.291 4.191,4.529 6.379,6.7c-0.554,-3.63 -0.717,-7.275 -0.492,-10.913c-2.025,1.388 -3.996,2.796 -5.887,4.213m104.658,17.604c10.729,11.2 18.546,21.591 22.725,30.221c1.946,-1.105 3.887,-2.288 5.792,-3.525c4.695,-3.059 7.554,-7.109 8.504,-12.038c1.546,-8.042 -1.917,-18.483 -10.021,-30.237c-6.758,1.37 -14.163,2.329 -22.029,2.854l-0.013,0.004c-1.166,4.612 -2.833,8.879 -4.966,12.708l0.008,0.013Zm-56.979,-17.009c3.975,12.184 8.229,23.075 12.671,32.43c10.491,-6.821 20.891,-15.03 30.941,-24.417c-1.225,-1.133 -2.462,-2.267 -3.721,-3.396c-13.266,-0.442 -26.67,-1.996 -39.891,-4.617m13.962,35.1c0.384,0.78 0.771,1.546 1.154,2.3c4.442,0.288 8.63,-0.145 12.463,-1.279c11.425,-3.379 20.071,-9.666 25.717,-18.687c-2.384,-2.438 -4.909,-4.925 -7.534,-7.404c-10.321,9.654 -21.004,18.079 -31.8,25.07m-51.575,-25.458c14.784,13.75 30.513,23.125 44.392,26.463c1.133,-0.675 2.267,-1.371 3.392,-2.075c-4.742,-9.95 -9.275,-21.617 -13.484,-34.709c-4.037,-0.854 -8.104,-1.825 -12.187,-2.916c-5.992,-1.596 -11.904,-3.892 -17.579,-6.834c-1.905,1.154 -3.767,2.334 -5.58,3.521c-0.612,5.508 -0.258,11.071 1.046,16.55m1.6,5.408c4.196,11.78 12.679,22.45 24.338,30.5c4.858,-2.054 9.841,-4.52 14.866,-7.358c-12.47,-3.65 -26.137,-11.717 -39.204,-23.142m52.713,25.367c4.025,7.475 8.241,13.875 12.566,19.054c16.1,0.975 32.605,-2.762 47.855,-10.829c-3.955,-8.229 -11.421,-18.208 -21.725,-29.029c-6.038,9.317 -15.105,15.812 -26.984,19.329c-3.65,1.079 -7.579,1.575 -11.712,1.475m-25.434,7.067c10.067,6.296 21.717,10.304 33.942,11.641c-4.125,-5.287 -8.133,-11.633 -11.95,-18.92l-0.008,-0.005c-1.946,-0.195 -3.95,-0.52 -5.979,-0.962l-0.005,-0c-5.391,3.171 -10.758,5.937 -16,8.246m40.696,15.05c6.575,7.054 13.413,11.437 20.354,13.037c11.196,2.588 18.809,-3.041 18.888,-3.1l0.367,-0.204c4.054,-1.529 6.745,-3.833 8.004,-6.85c1.496,-3.592 1.071,-8.325 -1.259,-14.079c-14.77,7.775 -30.695,11.617 -46.354,11.196m-81.987,-61.342c-17.967,13.967 -27.659,27.917 -25.975,37.471c0.971,5.508 5.675,9.621 13.975,12.212c13.7,4.284 29.454,2.875 47.121,-4.012c-12.9,-9.379 -21.85,-21.946 -25.359,-35.667l0,-0.004c-3.375,-3.171 -6.65,-6.529 -9.762,-10m-8.942,53.558c-1.325,-0.304 -2.637,-0.658 -3.933,-1.066c-9.438,-2.95 -14.821,-7.834 -15.996,-14.513c-1.9,-10.775 7.896,-25.375 26.925,-40.191c-20.729,-23.967 -30.192,-48.421 -24.133,-62.588c3.558,-8.337 11.937,-12.829 24.891,-13.358c11.971,-0.488 25.629,1.775 40.171,6.671c2.013,-16.096 8.021,-26.567 17.871,-31.134c3.033,-1.404 6.375,-1.704 9.933,-0.883c7.279,1.683 15.442,8.2 23.059,18.396c14.983,-4.575 28.725,-5.817 38.795,-3.492c10.759,2.483 16.867,9.067 17.205,18.538c0.262,7.279 -2.892,17.037 -9.13,28.304c4.68,1.154 9.146,2.683 13.288,4.55c15.071,6.8 17.658,13.491 17.179,17.908c-0.858,7.875 -11.779,14.704 -30.075,18.871c8.071,12.025 11.458,22.867 9.804,31.458c-1.104,5.746 -4.4,10.438 -9.787,13.946c-2.029,1.325 -4.104,2.583 -6.188,3.754c2.746,6.642 3.209,12.229 1.379,16.625c-1.562,3.746 -4.754,6.571 -9.495,8.404c-1.338,0.938 -9.471,6.184 -21.142,3.488c-8.238,-1.9 -16.254,-7.321 -23.829,-16.117c-14.384,-1.083 -28.196,-5.75 -39.834,-13.446c-17.358,7.088 -33.154,9.063 -46.958,5.875" style="fill:#4f3c74;fill-rule:nonzero;"/><path d="M879.754,-3.093c88.613,-5.162 112.088,132.583 47.038,156.838c-24.634,9.187 -106.667,33.07 -128.571,-49.496c-11.754,-44.313 15.491,-103.496 81.533,-107.342" style="fill:#60868b;fill-rule:nonzero;"/><path d="M893.598,53.779c0,0 1.325,21.579 16.029,22.113c14.705,0.529 18.988,-24.467 15.067,-28.888c-3.921,-4.421 -11.108,18.95 -14.975,15.721c-3.867,-3.229 -17.046,-14.671 -16.121,-8.946" style="fill:#241833;fill-rule:nonzero;"/><path d="M826.602,70.053c-0,-0 1.325,21.579 16.029,22.112c14.704,0.53 18.987,-24.466 15.067,-28.887c-3.921,-4.421 -11.109,18.95 -14.976,15.721c-3.866,-3.229 -17.045,-14.671 -16.12,-8.946" style="fill:#241833;fill-rule:nonzero;"/><path d="M905.834,108.545c-0,0 -3.267,-24.712 -20.221,-24.137c-16.958,0.571 -19.867,29.667 -15,34.437c4.867,4.771 11.25,-22.691 15.954,-19.287c4.708,3.4 20.792,15.496 19.267,8.987" style="fill:#241833;fill-rule:nonzero;"/><path d="M490.155,267.419c85.088,25.283 60.313,162.8 -9.108,163.487c-26.287,0.259 -111.55,-5.179 -104.071,-90.275c4.017,-45.666 49.767,-92.054 113.179,-73.212" style="fill:#ea6471;fill-rule:nonzero;"/><path d="M476.714,381.272c-0,0 5.333,-24.35 -10.809,-29.579c-16.137,-5.225 -28.77,21.146 -25.816,27.287c2.954,6.142 18.296,-17.512 21.566,-12.712c3.267,4.8 14.28,21.646 15.059,15.004" style="fill:#241833;fill-rule:nonzero;"/><path d="M452.508,319.363c-0,0 -19.667,-31.004 -25.146,-31.841c-5.475,-0.842 -2.854,15.979 -2.854,15.979c-0,-0 -15.292,-7.725 -16.221,-1.288c-0.321,2.2 49.196,38.288 44.221,17.15" style="fill:#241833;fill-rule:nonzero;"/><path d="M476.322,325.972c-0,-0 28.062,-23.671 33.541,-22.829c5.48,0.841 -2.07,16.1 -2.07,16.1c-0,-0 16.904,-2.784 15.858,3.641c-0.354,2.192 -58.421,21.758 -47.329,3.088" style="fill:#241833;fill-rule:nonzero;"/><path d="M437.678,337.783c-1.109,7.225 -7.967,12.171 -15.317,11.042c-7.35,-1.13 -12.413,-7.905 -11.3,-15.13c1.108,-7.229 7.966,-12.17 15.317,-11.041c7.35,1.129 12.408,7.904 11.3,15.129" style="fill:#241833;fill-rule:nonzero;"/><path d="M514.297,352.502c-1.108,7.225 -7.967,12.17 -15.317,11.041c-7.35,-1.129 -12.412,-7.904 -11.3,-15.129c1.109,-7.229 7.967,-12.171 15.317,-11.042c7.35,1.13 12.408,7.905 11.3,15.13" style="fill:#241833;fill-rule:nonzero;"/><path d="M1683.54,34.463c85.887,-22.405 135.866,108.083 76.821,144.6c-22.359,13.829 -98.134,53.304 -135.771,-23.38c-20.2,-41.154 -5.059,-104.525 58.95,-121.22" style="fill:#ea6471;fill-rule:nonzero;"/><path d="M1730.96,138.838c-0,0 -8.038,-23.596 -24.555,-19.716c-16.516,3.883 -13.679,32.987 -7.97,36.712c5.708,3.725 6.591,-24.454 11.875,-22.042c5.279,2.417 23.42,11.134 20.65,5.046" style="fill:#241833;fill-rule:nonzero;"/><path d="M1678.21,98.393c0,0 -32.875,-16.35 -37.996,-14.233c-5.121,2.117 5.829,15.15 5.829,15.15c0,-0 -17.083,1.304 -14.545,7.296c0.866,2.046 61.908,7.3 46.712,-8.213" style="fill:#241833;fill-rule:nonzero;"/><path d="M1702,91.723c0,0 11.763,-34.779 16.884,-36.895c5.125,-2.113 6.562,14.85 6.562,14.85c0,-0 13.025,-11.13 15.454,-5.092c0.83,2.062 -38.725,48.85 -38.9,27.137" style="fill:#241833;fill-rule:nonzero;"/><path d="M1675.05,121.83c2.792,6.758 -0.521,14.537 -7.392,17.375c-6.875,2.837 -14.708,-0.338 -17.5,-7.096c-2.791,-6.759 0.521,-14.538 7.392,-17.379c6.875,-2.838 14.708,0.341 17.5,7.1" style="fill:#241833;fill-rule:nonzero;"/><path d="M1748.23,94.77c2.792,6.758 -0.521,14.537 -7.392,17.375c-6.875,2.837 -14.708,-0.338 -17.5,-7.096c-2.791,-6.759 0.521,-14.538 7.392,-17.379c6.875,-2.838 14.708,0.341 17.5,7.1" style="fill:#241833;fill-rule:nonzero;"/><path d="M1242.11,498.966c84.613,26.829 57.338,163.871 -12.083,163.296c-26.288,-0.221 -111.442,-7.212 -102.408,-92.158c4.845,-45.584 51.433,-91.134 114.491,-71.138" style="fill:#f9ba74;fill-rule:nonzero;"/><path d="M1226.6,612.556c0,-0 5.775,-24.25 -10.267,-29.771c-16.041,-5.521 -29.154,20.617 -26.312,26.813c2.846,6.191 18.612,-17.175 21.796,-12.317c3.183,4.858 13.883,21.9 14.783,15.275" style="fill:#241833;fill-rule:nonzero;"/><path d="M1188.36,568.363c-1.241,7.204 -8.187,12.025 -15.516,10.762c-7.329,-1.262 -12.263,-8.129 -11.021,-15.333c1.242,-7.209 8.188,-12.025 15.517,-10.763c7.329,1.263 12.262,8.129 11.02,15.334" style="fill:#241833;fill-rule:nonzero;"/><path d="M1264.7,584.475c-1.242,7.204 -8.188,12.025 -15.517,10.762c-7.329,-1.262 -12.263,-8.129 -11.021,-15.333c1.242,-7.209 8.188,-12.025 15.517,-10.763c7.329,1.263 12.262,8.129 11.021,15.334" style="fill:#241833;fill-rule:nonzero;"/><path d="M1016.35,143.465c0,-0 -17.367,-30.53 -28.725,-68.48c-11.362,-37.945 -3.3,-81.72 39.608,-77.837c50.83,4.596 28.105,50.05 32.263,52.167c4.158,2.116 26.162,-40.013 58.362,-9.75c32.896,30.908 12.334,69.816 -101.508,103.9" style="fill:#ea6471;fill-rule:nonzero;"/><path d="M1033.96,107.542c-0.321,-0.98 -0.75,-2.188 -1.233,-3.53c-3.038,-8.47 -5.205,-15.262 -3.246,-19.208c1.371,-2.746 5.808,-3.275 16.379,-3.892c1.683,-0.095 3.704,-0.216 5.342,-0.358c-7.071,-9.929 -10.517,-15.592 -9.763,-18.971c0.242,-1.058 0.875,-1.925 1.784,-2.437c3.608,-2.029 12.862,-12.946 17.854,-19.35l4.208,3.279c-1.317,1.692 -12.492,15.929 -18.517,20.129c0.567,2.079 3.538,6.9 8.85,14.363c1.096,1.533 1.9,2.683 2.163,3.154l0.725,1.287l-0.696,1.571c-1.075,1.967 -3.3,2.175 -11.638,2.658c-3.608,0.213 -10.141,0.592 -12.054,1.342c-0.633,2.746 2.329,11 3.629,14.633c0.509,1.405 0.959,2.671 1.292,3.7l-5.079,1.63Z" style="fill:#241833;fill-rule:nonzero;"/><path d="M122.11,325.447c-0,-0 -32.071,-14.321 -63.696,-38.175c-31.625,-23.855 -51.046,-63.9 -14.171,-86.18c43.683,-26.395 52.283,23.692 56.887,22.938c4.605,-0.758 -2.608,-47.738 41.259,-42.417c44.812,5.429 51.283,48.959 -20.279,143.834" style="fill:#ea6471;fill-rule:nonzero;"/><path d="M115.03,286.071c-0.837,-0.6 -1.9,-1.316 -3.083,-2.112c-7.467,-5.029 -13.233,-9.221 -13.987,-13.563c-0.525,-3.021 2.741,-6.075 10.895,-12.829c1.296,-1.075 2.859,-2.367 4.088,-3.454c-11.575,-3.813 -17.708,-6.333 -19.1,-9.504c-0.433,-0.996 -0.433,-2.071 -0.004,-3.021c1.708,-3.771 2.7,-18.05 2.929,-26.163l5.333,0.146c-0.058,2.142 -0.637,20.234 -3.004,27.188c1.688,1.341 6.938,3.466 15.638,6.333c1.791,0.588 3.12,1.038 3.612,1.258l1.346,0.613l0.367,1.675c0.3,2.221 -1.371,3.708 -7.8,9.033c-2.784,2.309 -7.825,6.484 -8.921,8.221c1.116,2.588 8.387,7.483 11.587,9.642c1.242,0.833 2.359,1.583 3.234,2.216l-3.13,4.321Z" style="fill:#241833;fill-rule:nonzero;"/><path d="M820.304,292.016c-0,0 139.958,2.713 146.075,0c6.116,-2.712 2.296,-37.433 -19.884,-38.337c-22.179,-0.904 -14.979,5.404 -18.037,4.5c-3.063,-0.904 2.742,-44.854 -33.975,-44.763c-29.104,0.075 -32.879,23.475 -34.408,34.317c-1.534,10.846 -5.355,-21.688 -31.359,-10.842c-26.004,10.842 -13.766,30.725 -13.766,30.725c-0,0 -19.659,-21.158 -32.663,11.375c-7.904,19.779 38.017,13.025 38.017,13.025" style="fill:#4f3c74;fill-rule:nonzero;"/><path d="M906.036,307.576c-0,0 13.937,-7.416 15.012,-6.283c1.071,1.129 0.659,24.704 0.659,24.704c-0,0 14.079,-7.117 17.116,-5.271c3.038,1.846 2.063,38.192 0.796,36.063c-1.262,-2.129 -8.117,-23.4 -10.346,-22.359c-2.233,1.042 -13.454,5.738 -13.454,5.738l-9.783,-32.592Z" style="fill:#f9ba74;fill-rule:nonzero;"/><path d="M871.417,306.105c-0,-0 18.116,1.383 18.462,3.141c0.346,1.763 -14.583,24.421 -14.583,24.421c-0,0 18.071,1.758 19.883,5.425c1.813,3.663 -21.533,38.392 -21.45,35.542c0.079,-2.85 6.533,-27.746 3.721,-28.109c-2.813,-0.362 -16.613,-2.712 -16.613,-2.712l10.58,-37.708Z" style="fill:#f9ba74;fill-rule:nonzero;"/><path d="M834.918,301.729c-0,-0 13.625,7.975 13.225,9.479c-0.4,1.508 -20.684,13.529 -20.684,13.529c0,0 13.446,8.25 13.471,11.804c0.021,3.55 -31.429,21.796 -30.283,19.6c1.15,-2.191 15.662,-19.187 13.604,-20.541c-2.059,-1.355 -11.946,-8.442 -11.946,-8.442l22.612,-25.429Z" style="fill:#f9ba74;fill-rule:nonzero;"/><path d="M1295.56,66.46c-0,-0 139.958,2.712 146.075,-0c6.116,-2.713 2.296,-37.433 -19.884,-38.338c-22.179,-0.904 -14.979,5.405 -18.037,4.5c-3.063,-0.904 2.742,-44.854 -33.975,-44.762c-29.104,0.075 -32.879,23.475 -34.408,34.317c-1.534,10.845 -5.355,-21.688 -31.359,-10.842c-26.004,10.842 -13.766,30.725 -13.766,30.725c-0,-0 -19.659,-21.158 -32.663,11.375c-7.904,19.779 38.017,13.025 38.017,13.025" style="fill:#4f3c74;fill-rule:nonzero;"/><path d="M1381.29,82.02c-0,-0 13.937,-7.417 15.012,-6.283c1.071,1.129 0.659,24.704 0.659,24.704c-0,-0 14.079,-7.117 17.116,-5.271c3.038,1.846 2.063,38.192 0.796,36.062c-1.262,-2.129 -8.116,-23.4 -10.346,-22.358c-2.233,1.042 -13.454,5.738 -13.454,5.738l-9.783,-32.592Z" style="fill:#f9ba74;fill-rule:nonzero;"/><path d="M1346.67,80.548c-0,-0 18.116,1.383 18.462,3.142c0.346,1.762 -14.583,24.42 -14.583,24.42c-0,0 18.066,1.759 19.883,5.425c1.813,3.663 -21.533,38.392 -21.45,35.542c0.079,-2.85 6.533,-27.746 3.721,-28.108c-2.813,-0.363 -16.613,-2.713 -16.613,-2.713l10.58,-37.708Z" style="fill:#f9ba74;fill-rule:nonzero;"/><path d="M1310.17,76.172c0,0 13.625,7.975 13.225,9.479c-0.399,1.509 -20.683,13.529 -20.683,13.529c0,0 13.446,8.25 13.471,11.805c0.021,3.55 -31.429,21.795 -30.283,19.6c1.15,-2.192 15.662,-19.188 13.604,-20.542c-2.059,-1.354 -11.946,-8.442 -11.946,-8.442l22.612,-25.429Z" style="fill:#f9ba74;fill-rule:nonzero;"/><path d="M833.098,476.059c0,0 139.959,2.713 146.075,0c6.117,-2.712 2.296,-37.433 -19.883,-38.337c-22.179,-0.905 -14.979,5.404 -18.038,4.5c-3.062,-0.905 2.742,-44.855 -33.975,-44.763c-29.104,0.075 -32.879,23.475 -34.408,34.317c-1.533,10.846 -5.354,-21.688 -31.358,-10.842c-26.004,10.842 -13.767,30.725 -13.767,30.725c0,0 -19.658,-21.158 -32.662,11.375c-7.905,19.779 38.016,13.025 38.016,13.025" style="fill:#4f3c74;fill-rule:nonzero;"/><path d="M899.027,484.403c-3.816,0.796 -18.925,18.808 -5.766,19.258c7.616,0.263 7.175,-18.204 5.766,-19.258" style="fill:#60868b;fill-rule:nonzero;"/><path d="M868.425,488.233c-3.817,0.796 -18.925,18.809 -5.767,19.259c7.617,0.262 7.175,-18.205 5.767,-19.259" style="fill:#60868b;fill-rule:nonzero;"/><path d="M843.758,488.233c-3.817,0.796 -18.925,18.809 -5.767,19.259c7.617,0.262 7.175,-18.205 5.767,-19.259" style="fill:#60868b;fill-rule:nonzero;"/><path d="M849.694,520.272c-3.817,0.796 -18.925,18.809 -5.767,19.259c7.617,0.262 7.175,-18.204 5.767,-19.259" style="fill:#60868b;fill-rule:nonzero;"/><path d="M880.297,510.642c-3.817,0.796 -18.925,18.808 -5.767,19.258c7.617,0.263 7.175,-18.204 5.767,-19.258" style="fill:#60868b;fill-rule:nonzero;"/><path d="M872.316,541.113c-3.816,0.796 -18.925,18.808 -5.766,19.258c7.616,0.263 7.175,-18.204 5.766,-19.258" style="fill:#60868b;fill-rule:nonzero;"/><path d="M904.963,524.391c-3.816,0.796 -18.925,18.808 -5.766,19.258c7.616,0.263 7.175,-18.204 5.766,-19.258" style="fill:#60868b;fill-rule:nonzero;"/><path d="M919.11,494.033c-3.816,0.796 -18.925,18.809 -5.766,19.259c7.616,0.262 7.175,-18.204 5.766,-19.259" style="fill:#60868b;fill-rule:nonzero;"/><path d="M933.159,516.574c-3.816,0.796 -18.925,18.808 -5.766,19.258c7.616,0.263 7.175,-18.204 5.766,-19.258" style="fill:#60868b;fill-rule:nonzero;"/><path d="M942.855,488.233c-3.817,0.796 -18.925,18.809 -5.767,19.259c7.617,0.262 7.175,-18.205 5.767,-19.259" style="fill:#60868b;fill-rule:nonzero;"/><path d="M1715.24,287.237c0,0 139.959,2.713 146.075,0c6.117,-2.712 2.296,-37.433 -19.883,-38.337c-22.179,-0.905 -14.979,5.404 -18.038,4.5c-3.062,-0.905 2.742,-44.855 -33.975,-44.763c-29.104,0.075 -32.879,23.475 -34.408,34.317c-1.533,10.846 -5.354,-21.688 -31.358,-10.842c-26.004,10.842 -13.767,30.725 -13.767,30.725c0,0 -19.658,-21.158 -32.662,11.375c-7.905,19.779 38.016,13.025 38.016,13.025" style="fill:#4f3c74;fill-rule:nonzero;"/><path d="M1781.16,295.581c-3.816,0.796 -18.925,18.808 -5.766,19.258c7.616,0.263 7.175,-18.204 5.766,-19.258" style="fill:#60868b;fill-rule:nonzero;"/><path d="M1750.56,299.411c-3.816,0.796 -18.925,18.809 -5.766,19.259c7.616,0.262 7.175,-18.205 5.766,-19.259" style="fill:#60868b;fill-rule:nonzero;"/><path d="M1725.9,299.411c-3.817,0.796 -18.925,18.809 -5.767,19.259c7.617,0.262 7.175,-18.205 5.767,-19.259" style="fill:#60868b;fill-rule:nonzero;"/><path d="M1731.83,331.451c-3.817,0.796 -18.925,18.808 -5.767,19.258c7.617,0.263 7.175,-18.204 5.767,-19.258" style="fill:#60868b;fill-rule:nonzero;"/><path d="M1762.43,321.82c-3.817,0.796 -18.925,18.809 -5.767,19.259c7.617,0.262 7.175,-18.204 5.767,-19.259" style="fill:#60868b;fill-rule:nonzero;"/><path d="M1754.45,352.291c-3.816,0.796 -18.925,18.808 -5.766,19.258c7.616,0.263 7.175,-18.204 5.766,-19.258" style="fill:#60868b;fill-rule:nonzero;"/><path d="M1787.1,335.569c-3.816,0.796 -18.925,18.809 -5.766,19.259c7.616,0.262 7.175,-18.205 5.766,-19.259" style="fill:#60868b;fill-rule:nonzero;"/><path d="M1801.25,305.211c-3.816,0.796 -18.925,18.809 -5.766,19.259c7.616,0.262 7.175,-18.205 5.766,-19.259" style="fill:#60868b;fill-rule:nonzero;"/><path d="M1815.3,327.752c-3.817,0.796 -18.925,18.809 -5.767,19.259c7.617,0.262 7.175,-18.204 5.767,-19.259" style="fill:#60868b;fill-rule:nonzero;"/><path d="M1824.99,299.411c-3.817,0.796 -18.925,18.809 -5.767,19.259c7.617,0.262 7.175,-18.205 5.767,-19.259" style="fill:#60868b;fill-rule:nonzero;"/><path d="M161.638,70.812c-0,-0 139.958,2.712 146.074,-0c6.117,-2.713 2.296,-37.434 -19.883,-38.338c-22.179,-0.904 -14.979,5.404 -18.037,4.5c-3.063,-0.904 2.741,-44.854 -33.975,-44.762c-29.105,0.075 -32.88,23.475 -34.409,34.316c-1.533,10.846 -5.354,-21.687 -31.358,-10.841c-26.004,10.841 -13.767,30.725 -13.767,30.725c0,-0 -19.658,-21.159 -32.662,11.375c-7.904,19.779 38.016,13.025 38.016,13.025" style="fill:#4f3c74;fill-rule:nonzero;"/><path d="M227.567,79.155c-3.817,0.796 -18.925,18.809 -5.767,19.259c7.617,0.262 7.175,-18.204 5.767,-19.259" style="fill:#60868b;fill-rule:nonzero;"/><path d="M196.964,82.986c-3.817,0.796 -18.925,18.808 -5.767,19.258c7.617,0.263 7.175,-18.204 5.767,-19.258" style="fill:#60868b;fill-rule:nonzero;"/><path d="M172.297,82.986c-3.817,0.796 -18.925,18.808 -5.767,19.258c7.617,0.263 7.175,-18.204 5.767,-19.258" style="fill:#60868b;fill-rule:nonzero;"/><path d="M178.233,115.025c-3.816,0.796 -18.925,18.808 -5.766,19.258c7.616,0.263 7.175,-18.204 5.766,-19.258" style="fill:#60868b;fill-rule:nonzero;"/><path d="M208.836,105.395c-3.817,0.795 -18.925,18.808 -5.767,19.258c7.617,0.262 7.175,-18.204 5.767,-19.258" style="fill:#60868b;fill-rule:nonzero;"/><path d="M200.855,135.865c-3.816,0.796 -18.925,18.809 -5.766,19.259c7.616,0.262 7.175,-18.204 5.766,-19.259" style="fill:#60868b;fill-rule:nonzero;"/><path d="M233.502,119.144c-3.816,0.796 -18.925,18.808 -5.766,19.258c7.616,0.263 7.175,-18.204 5.766,-19.258" style="fill:#60868b;fill-rule:nonzero;"/><path d="M247.65,88.786c-3.817,0.796 -18.925,18.808 -5.767,19.258c7.617,0.263 7.175,-18.204 5.767,-19.258" style="fill:#60868b;fill-rule:nonzero;"/><path d="M261.698,111.327c-3.816,0.796 -18.925,18.808 -5.766,19.258c7.616,0.263 7.175,-18.204 5.766,-19.258" style="fill:#60868b;fill-rule:nonzero;"/><path d="M271.394,82.986c-3.817,0.796 -18.925,18.808 -5.767,19.258c7.617,0.263 7.175,-18.204 5.767,-19.258" style="fill:#60868b;fill-rule:nonzero;"/><path d="M220.712,177.258c0,-0 47.038,45.533 49.313,45.458c2.279,-0.071 28.796,-63.629 34.125,-64.542c5.325,-0.912 63.046,50.854 63.046,50.854c-0,0 9.633,-16.233 13.458,-17.895c3.821,-1.663 18.604,49.358 18.604,49.358c0,-0 -59.741,5.142 -57.396,0.337c2.346,-4.8 14.925,-18.17 14.925,-18.17c0,-0 -46.208,-36.409 -47.045,-33.146c-0.838,3.258 -31.563,65.504 -35.975,62.096c-4.409,-3.409 -65.375,-37.342 -65.375,-37.342l12.32,-37.008Z" style="fill:#4f3c74;fill-rule:nonzero;"/><path d="M1435.42,389.643c0,-0 -3.291,65.383 -5.004,66.883c-1.716,1.5 -64.479,-26.846 -68.996,-23.875c-4.512,2.971 -11.358,80.204 -11.358,80.204c0,0 -18.121,-5.287 -22.05,-3.896c-3.929,1.396 20.1,48.771 20.1,48.771c0,0 47.167,-37.021 42.171,-38.929c-4.992,-1.909 -23.308,-3.092 -23.308,-3.092c-0,0 8.912,-58.15 11.75,-56.337c2.837,1.812 67.779,26.32 68.679,20.82c0.896,-5.5 22.283,-71.916 22.283,-71.916l-34.267,-18.634Z" style="fill:#4f3c74;fill-rule:nonzero;"/><path d="M1850.89,404.052c0,-0 26.992,-59.642 29.138,-60.413c2.141,-0.767 50.179,48.579 55.466,47.467c5.292,-1.109 39.925,-70.479 39.925,-70.479c0,-0 14.93,11.55 19.096,11.691c4.163,0.142 -0.858,-52.741 -0.858,-52.741c-0,-0 -57.442,17.195 -53.496,20.795c3.95,3.605 20.567,11.409 20.567,11.409c-0,-0 -29.579,50.854 -31.554,48.129c-1.98,-2.725 -53.446,-49.3 -56.296,-44.513c-2.846,4.792 -47.059,58.771 -47.059,58.771l25.071,29.884Z" style="fill:#4f3c74;fill-rule:nonzero;"/><path d="M1020.39,383.396c0,-0 19.446,-18.404 48.784,-13.354c25.774,4.433 28.016,37.683 30.037,41.825c6.596,13.541 12.417,19.966 10.196,21.529c-2.221,1.562 -11.913,2.004 -10.871,3.567c1.042,1.562 3.367,5.162 2.408,6.504c-2.604,3.646 -21.441,-3.021 -25,9.546c-5.554,19.633 11.809,18.229 22.571,12.329c0,-0 3.471,11.108 1.388,13.712c-2.084,2.604 -21.7,-0.521 -24.304,6.771c-2.605,7.292 1.387,21.213 1.387,23.296l-54.167,-0c0,-0 -0.091,-10.454 -0.345,-26.079c-0.255,-15.625 -34.642,-63.188 -2.084,-99.646" style="fill:#ec7979;fill-rule:nonzero;"/><path d="M1118.17,433.153c0,0 18.509,-9.254 19.184,-9.029c0.679,0.225 4.287,12.413 3.612,12.642c-0.679,0.225 -19.637,5.416 -20.312,5.416c-0.68,0 -2.484,-9.029 -2.484,-9.029" style="fill:#4f3c74;fill-rule:nonzero;"/><path d="M1123.19,451.01c0,-0 20.667,-0.992 21.196,-0.513c0.529,0.484 -1.092,13.088 -1.8,13.021c-0.713,-0.066 -20.15,-2.975 -20.771,-3.246c-0.621,-0.275 1.375,-9.262 1.375,-9.262" style="fill:#4f3c74;fill-rule:nonzero;"/><path d="M1119.02,467.805c0,-0 18.163,9.916 18.363,10.6c0.2,0.683 -7.746,10.604 -8.317,10.179c-0.571,-0.429 -15.654,-13.034 -16.041,-13.588c-0.388,-0.558 5.995,-7.191 5.995,-7.191" style="fill:#4f3c74;fill-rule:nonzero;"/><path d="M1582.16,14.438c0,-0 -19.446,-18.404 -48.783,-13.354c-25.775,4.433 -28.017,37.683 -30.038,41.825c-6.595,13.541 -12.416,19.966 -10.195,21.529c2.22,1.562 11.912,2.004 10.87,3.567c-1.041,1.562 -3.366,5.162 -2.408,6.504c2.604,3.646 21.442,-3.021 25,9.546c5.554,19.633 -11.808,18.229 -22.571,12.329c0,-0 -3.471,11.108 -1.387,13.712c2.083,2.604 21.7,-0.521 24.304,6.771c2.604,7.292 -1.388,21.213 -1.388,23.296l54.167,-0c0,-0 0.092,-10.454 0.346,-26.079c0.254,-15.625 34.642,-63.188 2.083,-99.646" style="fill:#ec7979;fill-rule:nonzero;"/><path d="M1484.38,64.195c0,0 -18.508,-9.254 -19.183,-9.029c-0.679,0.229 -4.288,12.413 -3.613,12.642c0.679,0.225 19.638,5.417 20.313,5.417c0.679,-0 2.483,-9.03 2.483,-9.03" style="fill:#4f3c74;fill-rule:nonzero;"/><path d="M1479.37,82.052c0,0 -20.666,-0.991 -21.195,-0.512c-0.53,0.483 1.091,13.087 1.8,13.021c0.712,-0.067 20.15,-2.975 20.77,-3.246c0.621,-0.275 -1.375,-9.263 -1.375,-9.263" style="fill:#4f3c74;fill-rule:nonzero;"/><path d="M1483.53,98.847c0,-0 -18.162,9.916 -18.362,10.6c-0.2,0.683 7.745,10.604 8.316,10.179c0.571,-0.429 15.654,-13.033 16.042,-13.588c0.387,-0.558 -5.996,-7.191 -5.996,-7.191" style="fill:#4f3c74;fill-rule:nonzero;"/><path d="M742.413,138.011c-0,0 -51.154,-3.416 -74.763,27.096c-23.612,30.513 -0.125,61.654 13.067,70.388c13.196,8.737 30.558,5.262 33.333,6.654c2.78,1.387 -6.941,21.525 -1.387,21.525c5.554,-0 25,-21.484 40.279,-22.221c15.275,-0.742 37.5,3.517 52.775,-21.892c12.575,-20.908 9.613,-80.475 -63.304,-81.55" style="fill:#ec6f3d;fill-rule:nonzero;"/><path d="M709.49,190.136c0,5.883 -4.766,10.65 -10.65,10.65c-5.883,-0 -10.65,-4.767 -10.65,-10.65c0,-5.884 4.767,-10.65 10.65,-10.65c5.884,-0 10.65,4.766 10.65,10.65" style="fill:#241833;fill-rule:nonzero;"/><path d="M745.147,190.136c0,5.883 -4.767,10.65 -10.65,10.65c-5.883,-0 -10.65,-4.767 -10.65,-10.65c0,-5.884 4.767,-10.65 10.65,-10.65c5.883,-0 10.65,4.766 10.65,10.65" style="fill:#241833;fill-rule:nonzero;"/><path d="M780.727,190.136c-0,5.883 -4.767,10.65 -10.65,10.65c-5.884,-0 -10.65,-4.767 -10.65,-10.65c-0,-5.884 4.766,-10.65 10.65,-10.65c5.883,-0 10.65,4.766 10.65,10.65" style="fill:#241833;fill-rule:nonzero;"/><path d="M270.436,271.709c-0,-0 51.154,-3.417 74.762,27.096c23.613,30.512 0.125,61.654 -13.066,70.387c-13.196,8.738 -30.559,5.263 -33.334,6.654c-2.779,1.388 6.942,21.525 1.388,21.525c-5.554,0 -25,-21.483 -40.279,-22.221c-15.275,-0.741 -37.5,3.517 -52.775,-21.891c-12.575,-20.909 -9.613,-80.475 63.304,-81.55" style="fill:#f9ba74;fill-rule:nonzero;"/><path d="M303.358,323.834c0,5.883 4.767,10.65 10.65,10.65c5.884,-0 10.65,-4.767 10.65,-10.65c0,-5.884 -4.766,-10.65 -10.65,-10.65c-5.883,-0 -10.65,4.766 -10.65,10.65" style="fill:#241833;fill-rule:nonzero;"/><path d="M267.702,323.834c-0,5.883 4.766,10.65 10.65,10.65c5.883,-0 10.65,-4.767 10.65,-10.65c-0,-5.884 -4.767,-10.65 -10.65,-10.65c-5.884,-0 -10.65,4.766 -10.65,10.65" style="fill:#241833;fill-rule:nonzero;"/><path d="M232.122,323.834c0,5.883 4.767,10.65 10.65,10.65c5.883,-0 10.65,-4.767 10.65,-10.65c0,-5.884 -4.767,-10.65 -10.65,-10.65c-5.883,-0 -10.65,4.766 -10.65,10.65" style="fill:#241833;fill-rule:nonzero;"/><path d="M1240.7,138.011c-0,0 51.154,-3.416 74.762,27.096c23.613,30.513 0.125,61.654 -13.066,70.388c-13.196,8.737 -30.559,5.262 -33.334,6.654c-2.779,1.387 6.942,21.525 1.388,21.525c-5.554,-0 -25,-21.484 -40.279,-22.221c-15.275,-0.742 -37.5,3.517 -52.775,-21.892c-12.575,-20.908 -9.613,-80.475 63.304,-81.55" style="fill:#ec7979;fill-rule:nonzero;"/><path d="M1273.62,190.136c0,5.883 4.767,10.65 10.65,10.65c5.884,-0 10.65,-4.767 10.65,-10.65c0,-5.884 -4.766,-10.65 -10.65,-10.65c-5.883,-0 -10.65,4.766 -10.65,10.65" style="fill:#241833;fill-rule:nonzero;"/><path d="M1237.97,190.136c0,5.883 4.767,10.65 10.65,10.65c5.879,-0 10.65,-4.767 10.65,-10.65c0,-5.884 -4.771,-10.65 -10.65,-10.65c-5.883,-0 -10.65,4.766 -10.65,10.65" style="fill:#241833;fill-rule:nonzero;"/><path d="M1202.39,190.136c0,5.883 4.767,10.65 10.65,10.65c5.883,-0 10.65,-4.767 10.65,-10.65c0,-5.884 -4.767,-10.65 -10.65,-10.65c-5.883,-0 -10.65,4.766 -10.65,10.65" style="fill:#241833;fill-rule:nonzero;"/><path d="M1535.03,448.067c-0,0 -51.155,-3.417 -74.763,27.096c-23.612,30.512 -0.125,61.654 13.067,70.387c13.196,8.738 30.558,5.263 33.333,6.655c2.779,1.387 -6.942,21.525 -1.387,21.525c5.554,-0 25,-21.484 40.279,-22.221c15.275,-0.742 37.5,3.516 52.775,-21.892c12.575,-20.908 9.612,-80.475 -63.304,-81.55" style="fill:#60868b;fill-rule:nonzero;"/><path d="M1502.11,500.192c0,5.883 -4.766,10.65 -10.65,10.65c-5.883,-0 -10.65,-4.767 -10.65,-10.65c0,-5.884 4.767,-10.65 10.65,-10.65c5.884,-0 10.65,4.766 10.65,10.65" style="fill:#241833;fill-rule:nonzero;"/><path d="M1537.77,500.192c0,5.883 -4.766,10.65 -10.65,10.65c-5.879,-0 -10.65,-4.767 -10.65,-10.65c0,-5.884 4.771,-10.65 10.65,-10.65c5.884,-0 10.65,4.766 10.65,10.65" style="fill:#241833;fill-rule:nonzero;"/><path d="M1573.35,500.192c0,5.883 -4.767,10.65 -10.65,10.65c-5.879,-0 -10.65,-4.767 -10.65,-10.65c0,-5.884 4.771,-10.65 10.65,-10.65c5.883,-0 10.65,4.766 10.65,10.65" style="fill:#241833;fill-rule:nonzero;"/><path d="M1861.19,-18.381c0,0 -51.154,-3.416 -74.762,27.096c-23.613,30.513 -0.125,61.654 13.066,70.388c13.196,8.737 30.559,5.262 33.334,6.654c2.779,1.387 -6.942,21.525 -1.388,21.525c5.554,-0 25,-21.484 40.279,-22.221c15.275,-0.742 37.5,3.517 52.775,-21.892c12.575,-20.908 9.613,-80.475 -63.304,-81.55" style="fill:#f9ba74;fill-rule:nonzero;"/><path d="M1828.27,33.744c-0,5.883 -4.767,10.65 -10.65,10.65c-5.884,-0 -10.65,-4.767 -10.65,-10.65c-0,-5.884 4.766,-10.65 10.65,-10.65c5.883,-0 10.65,4.766 10.65,10.65" style="fill:#241833;fill-rule:nonzero;"/><path d="M1863.93,33.744c-0,5.883 -4.767,10.65 -10.65,10.65c-5.883,-0 -10.65,-4.767 -10.65,-10.65c-0,-5.884 4.767,-10.65 10.65,-10.65c5.883,-0 10.65,4.766 10.65,10.65" style="fill:#241833;fill-rule:nonzero;"/><path d="M1899.51,33.744c-0,5.883 -4.767,10.65 -10.65,10.65c-5.879,-0 -10.65,-4.767 -10.65,-10.65c-0,-5.884 4.771,-10.65 10.65,-10.65c5.883,-0 10.65,4.766 10.65,10.65" style="fill:#241833;fill-rule:nonzero;"/><path d="M620.01,93.327c-13.708,0.058 -24.87,-10.917 -24.925,-24.513c-0.058,-13.596 11.013,-24.658 24.725,-24.717c13.709,-0.054 24.867,10.921 24.925,24.513c0.055,13.596 -11.016,24.662 -24.725,24.717m61.163,-37.159c-3.863,-1.546 -10.379,-2.75 -16.467,-2.929c-1.054,-3.167 -2.429,-6.171 -4.075,-9c6.234,-6.529 12.984,-15.612 11.834,-19.642c-1.988,-6.962 -8.95,-14.92 -17.655,-11.191c-4.37,1.875 -10.87,6.508 -15.537,11.383c-2.358,-1.079 -4.817,-1.954 -7.358,-2.629c-0.3,-8.846 -1.967,-19.354 -5.5,-21.317c-6.33,-3.516 -16.88,-4.221 -20.396,4.571c-1.704,4.258 -2.984,11.733 -2.942,18.313c-1.229,0.479 -2.433,1.004 -3.617,1.583c-6.55,-6.583 -16.8,-14.542 -21.145,-13.3c-6.963,1.992 -14.917,8.954 -11.188,17.654c1.883,4.396 6.55,10.933 11.45,15.604c-1.383,2.525 -2.533,5.192 -3.458,7.967c-9.146,0.125 -20.925,1.762 -23.021,5.529c-3.517,6.329 -4.221,16.879 4.571,20.396c4.154,1.662 11.35,2.912 17.804,2.937c0.546,1.921 1.167,3.809 1.933,5.625c-5.991,6.442 -12.129,14.938 -11.029,18.788c1.992,6.962 8.954,14.921 17.654,11.192c3.354,-1.438 7.954,-4.5 12.021,-8.046c2.55,1.604 5.254,2.971 8.092,4.066c0.346,8.725 2.008,18.842 5.471,20.767c6.329,3.517 16.879,4.217 20.395,-4.575c1.392,-3.475 2.496,-9.1 2.834,-14.629c4.271,-1.129 8.3,-2.833 12.008,-5.054c6.017,5.204 12.992,9.837 16.379,8.866c6.963,-1.987 14.921,-8.95 11.188,-17.654c-1.504,-3.508 -4.796,-8.383 -8.554,-12.587c1,-2.2 1.854,-4.475 2.516,-6.838c8.634,-0.383 18.471,-2.046 20.363,-5.454c3.516,-6.329 4.221,-16.879 -4.571,-20.396" style="fill:#4f3c74;fill-rule:nonzero;"/><path d="M1638.61,395.094c-13.708,0.058 -24.871,-10.917 -24.925,-24.513c-0.058,-13.596 11.013,-24.658 24.725,-24.716c13.709,-0.055 24.867,10.92 24.925,24.512c0.054,13.596 -11.016,24.663 -24.725,24.717m61.163,-37.159c-3.863,-1.545 -10.379,-2.75 -16.467,-2.929c-1.054,-3.166 -2.429,-6.171 -4.075,-9c6.234,-6.529 12.984,-15.612 11.833,-19.641c-1.987,-6.963 -8.95,-14.921 -17.654,-11.188c-4.371,1.871 -10.871,6.504 -15.537,11.379c-2.359,-1.079 -4.817,-1.954 -7.359,-2.629c-0.3,-8.846 -1.966,-19.354 -5.5,-21.317c-6.329,-3.516 -16.879,-4.22 -20.395,4.571c-1.705,4.259 -2.984,11.734 -2.942,18.313c-1.229,0.479 -2.433,1.004 -3.617,1.583c-6.55,-6.583 -16.8,-14.542 -21.146,-13.3c-6.962,1.992 -14.916,8.954 -11.187,17.654c1.883,4.396 6.55,10.934 11.45,15.604c-1.383,2.525 -2.533,5.192 -3.458,7.967c-9.146,0.125 -20.925,1.763 -23.021,5.529c-3.517,6.329 -4.217,16.879 4.571,20.396c4.154,1.663 11.35,2.913 17.804,2.938c0.546,1.92 1.166,3.808 1.933,5.625c-5.992,6.441 -12.129,14.937 -11.029,18.791c1.992,6.959 8.954,14.917 17.654,11.188c3.354,-1.438 7.954,-4.5 12.021,-8.046c2.55,1.604 5.254,2.971 8.092,4.067c0.345,8.725 2.008,18.841 5.47,20.766c6.33,3.517 16.88,4.217 20.396,-4.575c1.392,-3.475 2.496,-9.1 2.834,-14.629c4.27,-1.129 8.3,-2.833 12.008,-5.054c6.017,5.204 12.992,9.837 16.379,8.867c6.963,-1.988 14.921,-8.95 11.188,-17.655c-1.505,-3.508 -4.796,-8.383 -8.555,-12.587c1,-2.2 1.855,-4.475 2.517,-6.838c8.633,-0.383 18.471,-2.045 20.363,-5.454c3.516,-6.329 4.22,-16.879 -4.571,-20.396" style="fill:#4f3c74;fill-rule:nonzero;"/><path d="M59.209,84.994c0,-0 40.375,-18.367 40.892,21.837c0.541,41.888 -36.271,21.496 -41.85,25.371c-5.575,3.871 -4.954,20.833 -10.046,20.279c-5.092,-0.554 -14.037,-8.046 -14.037,-8.046c-0,0 6.925,-18.408 15.2,-23.137c8.279,-4.729 31.483,7.742 37.574,-12.475c7.242,-24.038 -13.387,-13.954 -15.779,-8.642c-2.391,5.309 -26.008,-2.391 -11.954,-15.187" style="fill:#4f3c74;fill-rule:nonzero;"/><path d="M44.052,170.604c-2.713,4.908 -8.892,6.687 -13.804,3.975c-4.909,-2.713 -6.688,-8.892 -3.971,-13.804c2.712,-4.909 8.891,-6.688 13.8,-3.975c4.908,2.716 6.687,8.895 3.975,13.804" style="fill:#4f3c74;fill-rule:nonzero;"/><path d="M723.334,482.996c0,0 19.613,-39.783 45.475,-8.996c26.946,32.075 -14.454,39.605 -16.321,46.134c-1.862,6.529 9.363,19.262 5.071,22.058c-4.292,2.796 -15.958,2.667 -15.958,2.667c-0,-0 -6.3,-18.634 -2.888,-27.534c3.409,-8.904 29.263,-13.945 21.175,-33.45c-9.621,-23.187 -19.196,-2.32 -17.683,3.305c1.508,5.62 -21.642,14.62 -18.871,-4.184" style="fill:#4f3c74;fill-rule:nonzero;"/><path d="M765.821,558.849c1.009,5.516 -2.646,10.808 -8.162,11.816c-5.521,1.009 -10.809,-2.645 -11.821,-8.162c-1.008,-5.521 2.65,-10.808 8.167,-11.817c5.516,-1.012 10.808,2.646 11.816,8.163" style="fill:#4f3c74;fill-rule:nonzero;"/><path d="M1488.89,312.799c0,0 31.838,-30.883 45.855,6.804c14.608,39.263 -26.917,32.446 -30.867,37.971c-3.95,5.525 2.346,21.288 -2.638,22.479c-4.979,1.192 -15.925,-2.854 -15.925,-2.854c0,0 0.325,-19.662 6.53,-26.9c6.2,-7.241 32.25,-3.308 31.179,-24.396c-1.271,-25.07 -17.3,-8.633 -17.767,-2.829c-0.467,5.804 -25.296,6.509 -16.367,-10.275" style="fill:#4f3c74;fill-rule:nonzero;"/><path d="M1503.43,398.516c-0.905,5.538 -6.125,9.292 -11.659,8.388c-5.537,-0.904 -9.291,-6.121 -8.387,-11.659c0.9,-5.537 6.121,-9.291 11.658,-8.387c5.538,0.904 9.292,6.121 8.388,11.658" style="fill:#4f3c74;fill-rule:nonzero;"/><path d="M1151.47,19.754c-0,0 8.47,-43.537 41.516,-20.629c34.425,23.867 -3.546,42.012 -3.625,48.8c-0.083,6.792 14.092,16.129 10.684,19.954c-3.405,3.821 -14.696,6.763 -14.696,6.763c-0,-0 -10.975,-16.321 -10.021,-25.809c0.95,-9.483 24.571,-21.146 11.642,-37.837c-15.375,-19.846 -19.13,2.804 -16.196,7.833c2.937,5.029 -17.038,19.8 -19.304,0.925" style="fill:#4f3c74;fill-rule:nonzero;"/><path d="M1212.39,81.777c2.425,5.058 0.288,11.125 -4.77,13.546c-5.059,2.425 -11.125,0.287 -13.55,-4.771c-2.421,-5.058 -0.284,-11.125 4.775,-13.546c5.058,-2.425 11.12,-0.287 13.545,4.771" style="fill:#4f3c74;fill-rule:nonzero;"/><path d="M1029.3,540.332c-82.858,-12.425 -113.029,88.158 -100.462,111.041c-0,0 6.112,0.104 14.229,0.171c1.862,-28.608 15.096,-94.579 70.896,-94.579c63.208,-0 71.058,77.037 71.987,92.083c5.442,-0.441 10.254,-0.891 13.409,-1.283c11.812,-1.479 -3.43,-97.442 -70.059,-107.433" style="fill:#ec7979;fill-rule:nonzero;"/><path d="M1010.13,579.521c-38.492,2.946 -47.087,51.221 -49.004,72.063c10.104,-0.054 19.246,-0.275 21.616,-0.867c5.905,-1.479 -0.758,-47.983 28.771,-53.887c29.525,-5.909 29.525,54.462 35.434,54.541c2.383,0.034 9.479,-0.308 17.846,-0.825c-3.688,-22.679 -16.288,-73.962 -54.663,-71.025" style="fill:#60868b;fill-rule:nonzero;"/><path d="M1013.96,556.966c-55.804,-0 -69.033,65.971 -70.896,94.579c5.521,0.046 11.959,0.075 18.063,0.042c1.917,-20.846 10.508,-69.117 49.004,-72.067c38.375,-2.938 50.975,48.35 54.662,71.025c6.821,-0.421 14.455,-0.954 21.155,-1.496c-0.934,-15.046 -8.78,-92.083 -71.988,-92.083" style="fill:#f9ba74;fill-rule:nonzero;"/><path d="M1548.26,173.022c-82.859,-12.425 -113.03,88.159 -100.463,111.042c0,0 6.113,0.104 14.229,0.171c1.863,-28.608 15.096,-94.579 70.896,-94.579c63.208,-0 71.054,77.037 71.988,92.083c5.441,-0.442 10.254,-0.892 13.408,-1.283c11.812,-1.479 -3.429,-97.442 -70.058,-107.433" style="fill:#ec7979;fill-rule:nonzero;"/><path d="M1529.09,212.212c-38.492,2.946 -47.088,51.221 -49.004,72.063c10.104,-0.055 19.246,-0.275 21.616,-0.867c5.905,-1.479 -0.758,-47.983 28.771,-53.888c29.525,-5.908 29.525,54.463 35.434,54.542c2.383,0.033 9.479,-0.308 17.845,-0.825c-3.687,-22.679 -16.287,-73.962 -54.662,-71.025" style="fill:#60868b;fill-rule:nonzero;"/><path d="M1532.92,189.656c-55.804,0 -69.033,65.971 -70.895,94.579c5.52,0.046 11.958,0.075 18.062,0.042c1.917,-20.846 10.508,-69.117 49.004,-72.067c38.375,-2.937 50.975,48.35 54.663,71.025c6.821,-0.42 14.454,-0.954 21.154,-1.495c-0.933,-15.046 -8.779,-92.084 -71.988,-92.084" style="fill:#f9ba74;fill-rule:nonzero;"/><path d="M579.856,148.941c-78.004,-30.583 -129.841,60.742 -122.691,85.85c-0,0 5.937,1.463 13.833,3.338c8.196,-27.471 35.8,-88.834 90.2,-76.392c61.617,14.092 52.092,90.938 49.646,105.813c5.4,0.783 10.191,1.42 13.358,1.737c11.842,1.196 18.379,-95.754 -44.346,-120.346" style="fill:#ec7979;fill-rule:nonzero;"/><path d="M552.435,182.872c-38.183,-5.709 -57.321,39.433 -63.833,59.325c9.858,2.2 18.82,4.02 21.262,3.97c6.088,-0.12 9.958,-46.941 40.058,-46.116c30.105,0.825 16.646,59.675 22.384,61.071c2.316,0.562 9.308,1.812 17.579,3.175c1.467,-22.93 0.617,-75.734 -37.45,-81.425" style="fill:#60868b;fill-rule:nonzero;"/><path d="M561.197,161.737c-54.396,-12.441 -82.004,48.921 -90.196,76.392c5.371,1.275 11.642,2.742 17.6,4.067c6.517,-19.892 25.654,-65.034 63.833,-59.325c38.067,5.691 38.917,58.496 37.454,81.425c6.742,1.108 14.305,2.291 20.955,3.254c2.445,-14.875 11.97,-91.721 -49.646,-105.813" style="fill:#f9ba74;fill-rule:nonzero;"/><path d="M1241.43,339.183c-2.68,0.779 -4.642,0.504 -6.163,-0.184c-0.396,-15.358 -1.05,-28.083 -2.117,-28.508c-1.083,-0.433 -13.775,-0.525 -28.745,-0.475c-0.592,-1.479 -0.667,-3.396 0.608,-5.788c3.446,-6.458 7.321,-23.25 -10.763,-22.82c-18.083,0.429 -14.208,12.916 -11.583,21.958c0.888,3.062 0.433,5.212 -0.496,6.792c-15.791,0.141 -29.125,0.333 -29.125,0.333c0,-0 -0.1,14.746 0.042,31.812c-1.563,1.305 -4.021,2.296 -7.496,0.442c-6.458,-3.446 -23.25,-7.317 -22.821,10.767c0.434,18.083 12.917,14.208 21.959,11.579c4.608,-1.338 7.262,0.267 8.775,2.158c0.387,14.063 1.079,25.446 2.283,26.338c1.229,0.912 12.671,1.146 26.542,1.079c0.558,1.462 0.616,3.346 -0.63,5.687c-3.445,6.459 -7.32,23.25 10.763,22.821c18.083,-0.433 14.208,-12.916 11.583,-21.958c-0.9,-3.092 -0.429,-5.258 0.521,-6.842c16.734,-0.321 31.325,-0.787 31.325,-0.787c0,-0 0,-15.367 -0.221,-32.888c1.342,-0.3 2.946,-0.212 4.896,0.829c6.458,3.446 23.25,7.321 22.821,-10.762c-0.429,-18.083 -12.917,-14.208 -21.958,-11.583" style="fill:#ec6f3d;fill-rule:nonzero;"/><path d="M733.606,312.293c-1.346,2.446 -2.925,3.637 -4.488,4.229c-11.141,-10.579 -20.6,-19.117 -21.654,-18.662c-1.075,0.458 -10.112,9.37 -20.662,19.987c-1.463,-0.625 -2.875,-1.929 -3.663,-4.521c-2.129,-7.004 -11.262,-21.616 -23.746,-8.525c-12.483,13.092 -0.916,19.179 7.334,23.717c2.796,1.537 3.996,3.379 4.454,5.154c-11.067,11.267 -20.363,20.829 -20.363,20.829c0,0 10.359,10.496 22.525,22.467c-0.179,2.025 -1.216,4.467 -4.987,5.612c-7,2.13 -21.613,11.263 -8.521,23.746c13.092,12.484 19.179,0.913 23.717,-7.337c2.308,-4.204 5.321,-4.946 7.729,-4.675c10.217,9.666 18.754,17.225 20.237,17.008c1.513,-0.225 9.771,-8.154 19.53,-18.008c1.433,0.641 2.804,1.929 3.575,4.471c2.133,7 11.266,21.616 23.75,8.525c12.483,-13.092 0.912,-19.184 -7.338,-23.721c-2.821,-1.55 -4.021,-3.413 -4.467,-5.204c11.605,-12.059 21.592,-22.705 21.592,-22.705c0,0 -10.867,-10.87 -23.412,-23.1c0.733,-1.162 1.933,-2.233 4.05,-2.875c7.004,-2.133 21.616,-11.266 8.525,-23.75c-13.092,-12.483 -19.18,-0.912 -23.717,7.338" style="fill:#f9ba74;fill-rule:nonzero;"/><path d="M1307.9,281.989c2.446,1.346 3.638,2.925 4.229,4.488c-10.579,11.141 -19.116,20.6 -18.662,21.654c0.458,1.075 9.371,10.112 19.987,20.662c-0.625,1.463 -1.929,2.875 -4.521,3.663c-7.004,2.129 -21.616,11.262 -8.525,23.746c13.092,12.483 19.18,0.916 23.717,-7.334c1.538,-2.796 3.379,-3.996 5.154,-4.454c11.267,11.067 20.829,20.363 20.829,20.363c0,-0 10.496,-10.359 22.467,-22.525c2.025,0.179 4.467,1.216 5.613,4.987c2.129,7 11.262,21.613 23.745,8.521c12.484,-13.092 0.913,-19.179 -7.337,-23.717c-4.204,-2.308 -4.946,-5.321 -4.675,-7.729c9.667,-10.217 17.225,-18.754 17.008,-20.237c-0.225,-1.513 -8.154,-9.771 -18.008,-19.53c0.642,-1.433 1.929,-2.804 4.471,-3.575c7,-2.133 21.616,-11.266 8.525,-23.75c-13.092,-12.483 -19.184,-0.912 -23.721,7.338c-1.55,2.821 -3.413,4.021 -5.204,4.467c-12.059,-11.605 -22.704,-21.592 -22.704,-21.592c-0,-0 -10.871,10.867 -23.1,23.412c-1.163,-0.733 -2.234,-1.933 -2.875,-4.05c-2.134,-7.004 -11.267,-21.616 -23.75,-8.525c-12.484,13.092 -0.913,19.18 7.337,23.717" style="fill:#60868b;fill-rule:nonzero;"/><path d="M829.213,627.142c0,0 51.042,-42.496 55.209,-45.325c4.166,-2.829 16.529,14.583 16.529,14.583c-0,0 -59.208,47.855 -60.25,46.53c-1.042,-1.325 -11.488,-15.788 -11.488,-15.788" style="fill:#4f3c74;fill-rule:nonzero;"/><path d="M850.622,579.222c0,0 41.033,47.163 44.092,51.167c3.054,4.004 -14.442,17.637 -14.442,17.637c0,0 -40.196,-46.146 -45.25,-52.775c-1.021,-1.341 15.6,-16.029 15.6,-16.029" style="fill:#4f3c74;fill-rule:nonzero;"/><path d="M1981.68,47.262c-0,0 51.042,-42.495 55.208,-45.325c4.167,-2.829 16.529,14.584 16.529,14.584c0,-0 -59.208,47.854 -60.25,46.529c-1.041,-1.325 -11.487,-15.788 -11.487,-15.788" style="fill:#4f3c74;fill-rule:nonzero;"/><path d="M2003.09,-0.658c0,0 41.033,47.163 44.092,51.167c3.054,4.004 -14.442,17.638 -14.442,17.638c0,-0 -40.196,-46.146 -45.25,-52.775c-1.021,-1.342 15.6,-16.03 15.6,-16.03" style="fill:#4f3c74;fill-rule:nonzero;"/><path d="M1362.82,196.871c0,-0 51.042,-42.496 55.209,-45.325c4.166,-2.829 16.529,14.583 16.529,14.583c-0,0 -59.208,47.854 -60.25,46.529c-1.042,-1.325 -11.488,-15.787 -11.488,-15.787" style="fill:#4f3c74;fill-rule:nonzero;"/><path d="M1384.23,148.951c0,-0 41.034,47.162 44.092,51.166c3.054,4.005 -14.442,17.638 -14.442,17.638c0,0 -40.196,-46.146 -45.25,-52.775c-1.021,-1.342 15.6,-16.029 15.6,-16.029" style="fill:#4f3c74;fill-rule:nonzero;"/><path d="M46.489,38.359c0,-0 51.042,-42.496 55.209,-45.325c4.166,-2.829 16.529,14.583 16.529,14.583c-0,0 -59.209,47.854 -60.25,46.529c-1.042,-1.325 -11.488,-15.787 -11.488,-15.787" style="fill:#4f3c74;fill-rule:nonzero;"/><path d="M67.898,-9.561c-0,-0 41.033,47.162 44.092,51.166c3.054,4.005 -14.442,17.638 -14.442,17.638c-0,-0 -40.196,-46.146 -45.25,-52.775c-1.021,-1.342 15.6,-16.029 15.6,-16.029" style="fill:#4f3c74;fill-rule:nonzero;"/><path d="M718.679,7.09c0,0 33.533,-0.179 35.533,6.129c1.996,6.313 -16.395,38.809 -16.395,38.809c-0,-0 30.65,4.358 29.608,10.341c-1.038,5.979 -29.433,58.342 -33.238,56.654c-3.808,-1.683 -2.295,-49.116 -2.295,-49.116l-24.155,-0.696l10.942,-62.121Z" style="fill:#f9ba74;fill-rule:nonzero;"/><path d="M1294.03,375.338c-0,0 31.829,10.559 31.704,17.175c-0.125,6.621 -27.95,31.525 -27.95,31.525c0,0 27.646,13.934 24.746,19.271c-2.904,5.334 -46.558,45.854 -49.625,43.042c-3.067,-2.817 13.542,-47.271 13.542,-47.271l-22.663,-8.387l30.246,-55.355Z" style="fill:#f9ba74;fill-rule:nonzero;"/><path d="M1004.69,684.002c0,0 -21.633,66.25 6.754,66.842c43.767,0.913 7.217,-92.492 -6.754,-66.842" style="fill:#60868b;fill-rule:nonzero;"/><path d="M140.178,336.896c-0,-0 5.437,69.479 31.879,59.137c40.767,-15.946 -28.817,-88.183 -31.879,-59.137" style="fill:#60868b;fill-rule:nonzero;"/><path d="M588.682,306.941c0,0 -8.1,69.217 19.842,64.184c43.083,-7.759 -11.221,-92.088 -19.842,-64.184" style="fill:#60868b;fill-rule:nonzero;"/><path d="M1060.53,708.276c-0,-0 -35.08,60.221 -7.45,66.766c42.595,10.096 26.5,-88.904 7.45,-66.766" style="fill:#60868b;fill-rule:nonzero;"/><path d="M984.695,322.703c-0,-0 -35.08,60.221 -7.45,66.767c42.595,10.095 26.5,-88.905 7.45,-66.767" style="fill:#60868b;fill-rule:nonzero;"/><path d="M1825.09,127.966c-0.001,-0 -35.08,60.221 -7.451,66.767c42.596,10.095 26.5,-88.905 7.45,-66.767" style="fill:#60868b;fill-rule:nonzero;"/></g></g></svg>